<svg id="eORsVC3D42q1" xmlns="http://www.w3.org/2000/svg" xmlns:xlink="http://www.w3.org/1999/xlink" viewBox="0 0 1920 1080" shape-rendering="geometricPrecision" text-rendering="geometricPrecision">
<line x1="0" y1="-105.501228" x2="0" y2="105.501228" transform="matrix(1 0 0 1.433667 1736.922153 1090.25365)" fill="none" stroke="#3f5787" stroke-width="75"/>
<line x1="-113.91339" y1="113.91339" x2="113.91339" y2="-113.91339" transform="translate(40.129607 46.413391)" fill="none" stroke="#3f5787" stroke-width="40"/>
<line x1="0" y1="-105.501228" x2="0" y2="105.501228" transform="translate(914.824772 780.501228)" fill="none" stroke="#3f5787" stroke-width="75"/>
<line x1="0" y1="-93.133683" x2="0" y2="93.133682" transform="translate(785.675675 405.657472)" fill="none" stroke="#3f5787" stroke-width="75"/>
<line x1="0" y1="-105.501228" x2="0" y2="105.501228" transform="translate(914.824772 703.501228)" fill="none" stroke="#3f5787" stroke-width="75"/>
<line x1="0" y1="-105.501228" x2="0" y2="105.501228" transform="translate(914.824772 985.501228)" fill="none" stroke="#3f5787" stroke-width="75"/>
<line x1="76.73671" y1="-76.736711" x2="-76.736711" y2="76.736711" transform="matrix(0 1-1 0 851.088062 546.710076)" fill="none" stroke="#3f5787" stroke-width="75"/>
<line x1="76.73671" y1="-76.736711" x2="-76.736711" y2="76.736711" transform="translate(1671.088062 349.710076)" fill="none" stroke="#3f5787" stroke-width="75"/>
<line x1="76.73671" y1="-76.736711" x2="-76.736711" y2="76.736711" transform="translate(1521.088062 499.710076)" fill="none" stroke="#3f5787" stroke-width="75"/>
<line x1="-130.671376" y1="130.671376" x2="130.671376" y2="-130.671376" transform="translate(93.374079 974.594597)" fill="none" stroke="#3f5787" stroke-width="3"/>
<line x1="-113.91339" y1="113.91339" x2="113.91339" y2="-113.91339" transform="translate(1875.129607 132.413391)" fill="none" stroke="#3f5787" stroke-width="40"/>
<line x1="-130.671376" y1="130.671376" x2="130.671376" y2="-130.671376" transform="translate(1932.238944 460.381452)" fill="none" stroke="#3f5787" stroke-width="10"/>
<line x1="-130.671376" y1="130.671376" x2="130.671376" y2="-130.671376" transform="translate(1929.238944 332.710076)" fill="none" stroke="#3f5787" stroke-width="10"/>
<line x1="-130.671376" y1="130.671376" x2="130.671376" y2="-130.671376" transform="translate(1929.238944 715.081084)" fill="none" stroke="#3f5787" stroke-width="3"/>
<line x1="-130.671376" y1="130.671376" x2="130.671376" y2="-130.671376" transform="translate(1931.130835 638.962534)" fill="none" stroke="#3f5787" stroke-width="3"/>
<line x1="-130.671376" y1="130.671376" x2="130.671376" y2="-130.671376" transform="translate(1910.887593 594.363022)" fill="none" stroke="#3f5787" stroke-width="3"/>
<line x1="-144.562962" y1="144.562962" x2="144.562962" y2="-144.562962" transform="matrix(1.032762 0 0 1 1964.067874 805.012288)" fill="none" stroke="#3f5787" stroke-width="10"/>
<line x1="76.73671" y1="-76.736711" x2="-76.736711" y2="76.736711" transform="translate(969.431265 260.683437)" fill="none" stroke="#3f5787" stroke-width="75"/>
<line x1="0" y1="-105.501228" x2="0" y2="105.501228" transform="translate(1035.167976 103.474588)" fill="none" stroke="#3f5787" stroke-width="75"/>
<line x1="0" y1="-105.501228" x2="0" y2="105.501228" transform="translate(1035.167976 983.474588)" fill="none" stroke="#3f5787" stroke-width="75"/>
<line x1="0" y1="-105.501228" x2="0" y2="105.501228" transform="translate(1035.167976 778.474588)" fill="none" stroke="#3f5787" stroke-width="75"/>
<line x1="0" y1="-105.501228" x2="0" y2="105.501228" transform="translate(1035.167976 705.474588)" fill="none" stroke="#3f5787" stroke-width="75"/>
<polygon points="0,-253.357297 219.413855,-126.678648 219.413855,126.678649 0,253.357297 -219.413855,126.678649 -219.413855,-126.678648 0,-253.357297" transform="matrix(.253432 0 0 0.253432 1915.741628 1060.073711)" fill="#d2dbed" stroke="#000" stroke-width="50"/>
<polygon points="0,-253.357297 219.413855,-126.678648 219.413855,126.678649 0,253.357297 -219.413855,126.678649 -219.413855,-126.678648 0,-253.357297" transform="matrix(.253432 0 0 0.253432 1915.741628-20.926289)" fill="#d2dbed" stroke="#000" stroke-width="50"/>
<polygon points="0,-253.357297 219.413855,-126.678648 219.413855,126.678649 0,253.357297 -219.413855,126.678649 -219.413855,-126.678648 0,-253.357297" transform="matrix(.253432 0 0 0.253432-5.258372-19.926289)" fill="#d2dbed" stroke="#000" stroke-width="50"/>
<polygon points="0,-253.357297 219.413855,-126.678648 219.413855,126.678649 0,253.357297 -219.413855,126.678649 -219.413855,-126.678648 0,-253.357297" transform="matrix(.253432 0 0 0.253432-5.258372 1060.073711)" fill="#d2dbed" stroke="#000" stroke-width="50"/>
<polygon points="0,-253.357297 219.413855,-126.678648 219.413855,126.678649 0,253.357297 -219.413855,126.678649 -219.413855,-126.678648 0,-253.357297" transform="matrix(.253432 0 0 0.253432 1804.528644 671.911552)" fill="none" stroke="#000" stroke-width="50"/>
<polygon points="0,-253.357297 219.413855,-126.678648 219.413855,126.678649 0,253.357297 -219.413855,126.678649 -219.413855,-126.678648 0,-253.357297" transform="matrix(.253432 0 0 0.253432 1415.2832 769.842756)" fill="none" stroke="#000" stroke-width="50"/>
<polygon points="0,-253.357297 219.413855,-126.678648 219.413855,126.678649 0,253.357297 -219.413855,126.678649 -219.413855,-126.678648 0,-253.357297" transform="matrix(.253432 0 0 0.253432 1415.2832 375.250616)" fill="#d2dbed" stroke="#000" stroke-width="50"/>
<polygon points="0,-253.357297 219.413855,-126.678648 219.413855,126.678649 0,253.357297 -219.413855,126.678649 -219.413855,-126.678648 0,-253.357297" transform="matrix(.253432 0 0 0.253432 1860.135136 959.034397)" fill="#d2dbed" stroke="#000" stroke-width="50"/>
<polygon points="0,-253.357297 219.413855,-126.678648 219.413855,126.678649 0,253.357297 -219.413855,126.678649 -219.413855,-126.678648 0,-253.357297" transform="matrix(.253432 0 0 0.253432 1748.922152 571.872238)" fill="none" stroke="#000" stroke-width="50"/>
<polygon points="0,-253.357297 219.413855,-126.678648 219.413855,126.678649 0,253.357297 -219.413855,126.678649 -219.413855,-126.678648 0,-253.357297" transform="matrix(.253432 0 0 0.253432 1359.676708 669.803442)" fill="none" stroke="#000" stroke-width="50"/>
<polygon points="0,-253.357297 219.413855,-126.678648 219.413855,126.678649 0,253.357297 -219.413855,126.678649 -219.413855,-126.678648 0,-253.357297" transform="matrix(.253432 0 0 0.253432 1359.676708 275.211302)" fill="#d2dbed" stroke="#000" stroke-width="50"/>
<polygon points="0,-253.357297 219.413855,-126.678648 219.413855,126.678649 0,253.357297 -219.413855,126.678649 -219.413855,-126.678648 0,-253.357297" transform="matrix(.253432 0 0 0.253432 1748.922152 959.034397)" fill="#d2dbed" stroke="#000" stroke-width="50"/>
<polygon points="0,-253.357297 219.413855,-126.678648 219.413855,126.678649 0,253.357297 -219.413855,126.678649 -219.413855,-126.678648 0,-253.357297" transform="matrix(.253432 0 0 0.253432 1637.709168 571.872238)" fill="#d2dbed" stroke="#000" stroke-width="50"/>
<polygon points="0,-253.357297 219.413855,-126.678648 219.413855,126.678649 0,253.357297 -219.413855,126.678649 -219.413855,-126.678648 0,-253.357297" transform="matrix(.253432 0 0 0.253432 1248.463724 669.803442)" fill="#d2dbed" stroke="#000" stroke-width="50"/>
<polygon points="0,-253.357297 219.413855,-126.678648 219.413855,126.678649 0,253.357297 -219.413855,126.678649 -219.413855,-126.678648 0,-253.357297" transform="matrix(.253432 0 0 0.253432 1248.463724 275.211302)" fill="none" stroke="#000" stroke-width="50"/>
<polygon points="0,-253.357297 219.413855,-126.678648 219.413855,126.678649 0,253.357297 -219.413855,126.678649 -219.413855,-126.678648 0,-253.357297" transform="matrix(.253432 0 0 0.253432 1804.528644 860.343981)" fill="#d2dbed" stroke="#000" stroke-width="50"/>
<polygon points="0,-253.357297 219.413855,-126.678648 219.413855,126.678649 0,253.357297 -219.413855,126.678649 -219.413855,-126.678648 0,-253.357297" transform="matrix(.253432 0 0 0.253432 1693.31566 473.18182)" fill="#d2dbed" stroke="#000" stroke-width="50"/>
<polygon points="0,-253.357297 219.413855,-126.678648 219.413855,126.678649 0,253.357297 -219.413855,126.678649 -219.413855,-126.678648 0,-253.357297" transform="matrix(.253432 0 0 0.253432 1304.070216 571.113024)" fill="none" stroke="#000" stroke-width="50"/>
<polygon points="0,-253.357297 219.413855,-126.678648 219.413855,126.678649 0,253.357297 -219.413855,126.678649 -219.413855,-126.678648 0,-253.357297" transform="matrix(.253432 0 0 0.253432 1304.070216 176.520884)" fill="#d2dbed" stroke="#000" stroke-width="50"/>
<polygon points="0,-253.357297 219.413855,-126.678648 219.413855,126.678649 0,253.357297 -219.413855,126.678649 -219.413855,-126.678648 0,-253.357297" transform="matrix(.253432 0 0 0.253432 497.810032 415.966986)" fill="none" stroke="#000" stroke-width="50"/>
<polygon points="0,-253.357297 219.413855,-126.678648 219.413855,126.678649 0,253.357297 -219.413855,126.678649 -219.413855,-126.678648 0,-253.357297" transform="matrix(.253432 0 0 0.253432 721.150265 195.50123)" fill="#d2dbed" stroke="#000" stroke-width="50"/>
<polygon points="0,-253.357297 219.413855,-126.678648 219.413855,126.678649 0,253.357297 -219.413855,126.678649 -219.413855,-126.678648 0,-253.357297" transform="matrix(.253432 0 0 0.253432 509.18919 800.329244)" fill="none" stroke="#000" stroke-width="50"/>
<polygon points="0,-253.357297 219.413855,-126.678648 219.413855,126.678649 0,253.357297 -219.413855,126.678649 -219.413855,-126.678648 0,-253.357297" transform="matrix(.253432 0 0 0.253432 748.005296 762.965602)" fill="none" stroke="#000" stroke-width="50"/>
<polygon points="0,-253.357297 219.413855,-126.678648 219.413855,126.678649 0,253.357297 -219.413855,126.678649 -219.413855,-126.678648 0,-253.357297" transform="matrix(.253432 0 0 0.253432 803.611788 669.803442)" fill="none" stroke="#000" stroke-width="50"/>
<polygon points="0,-253.357297 219.413855,-126.678648 219.413855,126.678649 0,253.357297 -219.413855,126.678649 -219.413855,-126.678648 0,-253.357297" transform="matrix(.253432 0 0 0.253432 914.824772 669.803442)" fill="none" stroke="#000" stroke-width="50"/>
<polygon points="0,-253.357297 219.413855,-126.678648 219.413855,126.678649 0,253.357297 -219.413855,126.678649 -219.413855,-126.678648 0,-253.357297" transform="matrix(.253432 0 0 0.253432 970.431265 571.872238)" fill="none" stroke="#000" stroke-width="50"/>
<polygon points="0,-253.357297 219.413855,-126.678648 219.413855,126.678649 0,253.357297 -219.413855,126.678649 -219.413855,-126.678648 0,-253.357297" transform="matrix(.253432 0 0 0.253432 1637.709168 762.412776)" fill="#d2dbed" stroke="#000" stroke-width="50"/>
<polygon points="0,-253.357297 219.413855,-126.678648 219.413855,126.678649 0,253.357297 -219.413855,126.678649 -219.413855,-126.678648 0,-253.357297" transform="matrix(.253432 0 0 0.253432 1526.496184 375.250616)" fill="#d2dbed" stroke="#000" stroke-width="50"/>
<polygon points="0,-253.357297 219.413855,-126.678648 219.413855,126.678649 0,253.357297 -219.413855,126.678649 -219.413855,-126.678648 0,-253.357297" transform="matrix(.253432 0 0 0.253432 1137.25074 473.18182)" fill="#d2dbed" stroke="#000" stroke-width="50"/>
<polygon points="0,-253.357297 219.413855,-126.678648 219.413855,126.678649 0,253.357297 -219.413855,126.678649 -219.413855,-126.678648 0,-253.357297" transform="matrix(.253432 0 0 0.253432 1137.25074 78.58968)" fill="none" stroke="#000" stroke-width="50"/>
<polygon points="0,-253.357297 219.413855,-126.678648 219.413855,126.678649 0,253.357297 -219.413855,126.678649 -219.413855,-126.678648 0,-253.357297" transform="matrix(.253432 0 0 0.253432 1582.102676 860.343981)" fill="#d2dbed" stroke="#000" stroke-width="50"/>
<polygon points="0,-253.357297 219.413855,-126.678648 219.413855,126.678649 0,253.357297 -219.413855,126.678649 -219.413855,-126.678648 0,-253.357297" transform="matrix(.253432 0 0 0.253432 1470.889692 473.18182)" fill="none" stroke="#000" stroke-width="50"/>
<polygon points="0,-253.357297 219.413855,-126.678648 219.413855,126.678649 0,253.357297 -219.413855,126.678649 -219.413855,-126.678648 0,-253.357297" transform="matrix(.253432 0 0 0.253432 1081.644248 571.113024)" fill="none" stroke="#000" stroke-width="50"/>
<polygon points="0,-253.357297 219.413855,-126.678648 219.413855,126.678649 0,253.357297 -219.413855,126.678649 -219.413855,-126.678648 0,-253.357297" transform="matrix(.253432 0 0 0.253432 1081.644248 176.520884)" fill="none" stroke="#000" stroke-width="50"/>
<polygon points="0,-253.357297 219.413855,-126.678648 219.413855,126.678649 0,253.357297 -219.413855,126.678649 -219.413855,-126.678648 0,-253.357297" transform="matrix(.253432 0 0 0.253432 1637.709168 959.034397)" fill="#d2dbed" stroke="#000" stroke-width="50"/>
<polygon points="0,-253.357297 219.413855,-126.678648 219.413855,126.678649 0,253.357297 -219.413855,126.678649 -219.413855,-126.678648 0,-253.357297" transform="matrix(.253432 0 0 0.253432 1526.496184 571.872238)" fill="none" stroke="#000" stroke-width="50"/>
<polygon points="0,-253.357297 219.413855,-126.678648 219.413855,126.678649 0,253.357297 -219.413855,126.678649 -219.413855,-126.678648 0,-253.357297" transform="matrix(.253432 0 0 0.253432 1137.25074 669.803442)" fill="#d2dbed" stroke="#000" stroke-width="50"/>
<polygon points="0,-253.357297 219.413855,-126.678648 219.413855,126.678649 0,253.357297 -219.413855,126.678649 -219.413855,-126.678648 0,-253.357297" transform="matrix(.253432 0 0 0.253432 1137.25074 275.211302)" fill="none" stroke="#000" stroke-width="50"/>
<polygon points="0,-253.357297 219.413855,-126.678648 219.413855,126.678649 0,253.357297 -219.413855,126.678649 -219.413855,-126.678648 0,-253.357297" transform="matrix(.253432 0 0 0.253432 1748.922152 762.412776)" fill="none" stroke="#000" stroke-width="50"/>
<polygon points="0,-253.357297 219.413855,-126.678648 219.413855,126.678649 0,253.357297 -219.413855,126.678649 -219.413855,-126.678648 0,-253.357297" transform="matrix(.253432 0 0 0.253432 1637.709168 375.250616)" fill="none" stroke="#000" stroke-width="50"/>
<polygon points="0,-253.357297 219.413855,-126.678648 219.413855,126.678649 0,253.357297 -219.413855,126.678649 -219.413855,-126.678648 0,-253.357297" transform="matrix(.253432 0 0 0.253432 1248.463724 473.18182)" fill="#d2dbed" stroke="#000" stroke-width="50"/>
<polygon points="0,-253.357297 219.413855,-126.678648 219.413855,126.678649 0,253.357297 -219.413855,126.678649 -219.413855,-126.678648 0,-253.357297" transform="matrix(.253432 0 0 0.253432 1248.463724 78.58968)" fill="none" stroke="#000" stroke-width="50"/>
<polygon points="0,-253.357297 219.413855,-126.678648 219.413855,126.678649 0,253.357297 -219.413855,126.678649 -219.413855,-126.678648 0,-253.357297" transform="matrix(.253432 0 0 0.253432 1693.31566 1052.19656)" fill="#d2dbed" stroke="#000" stroke-width="50"/>
<polygon points="0,-253.357297 219.413855,-126.678648 219.413855,126.678649 0,253.357297 -219.413855,126.678649 -219.413855,-126.678648 0,-253.357297" transform="matrix(.253432 0 0 0.253432 1582.102676 666.034398)" fill="none" stroke="#000" stroke-width="50"/>
<polygon points="0,-253.357297 219.413855,-126.678648 219.413855,126.678649 0,253.357297 -219.413855,126.678649 -219.413855,-126.678648 0,-253.357297" transform="matrix(.253432 0 0 0.253432 1192.857232 762.965602)" fill="#d2dbed" stroke="#000" stroke-width="50"/>
<polygon points="0,-253.357297 219.413855,-126.678648 219.413855,126.678649 0,253.357297 -219.413855,126.678649 -219.413855,-126.678648 0,-253.357297" transform="matrix(.253432 0 0 0.253432 1192.857232 373.373462)" fill="#d2dbed" stroke="#000" stroke-width="50"/>
<polygon points="0,-253.357297 219.413855,-126.678648 219.413855,126.678649 0,253.357297 -219.413855,126.678649 -219.413855,-126.678648 0,-253.357297" transform="matrix(.253432 0 0 0.253432 1860.135136 762.412776)" fill="#d2dbed" stroke="#000" stroke-width="50"/>
<polygon points="0,-253.357297 219.413855,-126.678648 219.413855,126.678649 0,253.357297 -219.413855,126.678649 -219.413855,-126.678648 0,-253.357297" transform="matrix(.253432 0 0 0.253432 1748.922152 375.250616)" fill="none" stroke="#000" stroke-width="50"/>
<polygon points="0,-253.357297 219.413855,-126.678648 219.413855,126.678649 0,253.357297 -219.413855,126.678649 -219.413855,-126.678648 0,-253.357297" transform="matrix(.253432 0 0 0.253432 1359.676708 473.18182)" fill="#d2dbed" stroke="#000" stroke-width="50"/>
<polygon points="0,-253.357297 219.413855,-126.678648 219.413855,126.678649 0,253.357297 -219.413855,126.678649 -219.413855,-126.678648 0,-253.357297" transform="matrix(.253432 0 0 0.253432 1359.676708 78.58968)" fill="none" stroke="#000" stroke-width="50"/>
<line x1="0" y1="-105.501228" x2="0" y2="105.501228" transform="translate(914.824772 105.501228)" fill="none" stroke="#3f5787" stroke-width="75"/>
<line x1="0" y1="-105.501228" x2="0" y2="105.501228" transform="matrix(1 0 0 1.433667 1736.922153 151.25365)" fill="none" stroke="#3f5787" stroke-width="75"/>
<line x1="76.73671" y1="-76.736711" x2="-76.736711" y2="76.736711" transform="translate(850.088062 259.710076)" fill="none" stroke="#3f5787" stroke-width="75"/>
<line x1="-130.671376" y1="130.671376" x2="130.671376" y2="-130.671376" transform="translate(83.238944 261.963759)" fill="none" stroke="#3f5787" stroke-width="3"/>
<line x1="-130.671376" y1="130.671376" x2="130.671376" y2="-130.671376" transform="translate(83.238944 390.381452)" fill="none" stroke="#3f5787" stroke-width="10"/>
<line x1="-130.671376" y1="130.671376" x2="130.671376" y2="-130.671376" transform="translate(83.238944 259.710076)" fill="none" stroke="#3f5787" stroke-width="10"/>
<line x1="-130.671376" y1="130.671376" x2="130.671376" y2="-130.671376" transform="translate(83.238944 636.081084)" fill="none" stroke="#3f5787" stroke-width="3"/>
<line x1="-130.671376" y1="130.671376" x2="130.671376" y2="-130.671376" transform="translate(75.130835 574.962534)" fill="none" stroke="#3f5787" stroke-width="3"/>
<line x1="-130.671376" y1="130.671376" x2="130.671376" y2="-130.671376" transform="translate(83.238944 698.756756)" fill="none" stroke="#3f5787" stroke-width="3"/>
<line x1="-130.671376" y1="130.671376" x2="130.671376" y2="-130.671376" transform="translate(56.887593 528.363022)" fill="none" stroke="#3f5787" stroke-width="3"/>
<line x1="-130.671376" y1="130.671376" x2="130.671376" y2="-130.671376" transform="translate(78.502768 882.13534)" fill="none" stroke="#3f5787" stroke-width="3"/>
<line x1="-147.639435" y1="0" x2="147.639435" y2="0" transform="translate(358.441646 259.710076)" fill="none" stroke="#3f5787" stroke-width="10"/>
<ellipse rx="28.878182" ry="28.878182" transform="matrix(.925555 0 0 0.925555 538.067372 259.710076)" fill="none" stroke="#000" stroke-width="10"/>
<ellipse rx="28.878182" ry="28.878182" transform="matrix(.925555 0 0 0.925555 409.651106 506.904178)" fill="none" stroke="#000" stroke-width="10"/>
<ellipse rx="28.878182" ry="28.878182" transform="matrix(.925555 0 0 0.925555 1779.651106 486.904178)" fill="none" stroke="#000" stroke-width="10"/>
<ellipse rx="28.878182" ry="28.878182" transform="matrix(.925555 0 0 0.925555 382.92276 446.453474)" fill="none" stroke="#000" stroke-width="10"/>
<ellipse rx="28.878182" ry="28.878182" transform="matrix(.925555 0 0 0.925555 426.854352 312.691802)" fill="none" stroke="#000" stroke-width="10"/>
<ellipse rx="28.878182" ry="28.878182" transform="matrix(.925555 0 0 0.925555 232.530557 112.312038)" fill="none" stroke="#000" stroke-width="10"/>
<ellipse rx="28.878182" ry="28.878182" transform="matrix(.925555 0 0 0.925555 235.90249 554.797297)" fill="none" stroke="#000" stroke-width="10"/>
<ellipse rx="28.878182" ry="28.878182" transform="matrix(.925555 0 0 0.925555 225.901189 732.362256)" fill="none" stroke="#000" stroke-width="10"/>
<ellipse rx="28.878182" ry="28.878182" transform="matrix(.925555 0 0 0.925555 240.638666 826.621622)" fill="none" stroke="#000" stroke-width="10"/>
<ellipse rx="28.878182" ry="28.878182" transform="matrix(.925555 0 0 0.925555 100.638666 1046.621622)" fill="none" stroke="#000" stroke-width="10"/>
<line x1="-75.071867" y1="0" x2="75.071867" y2="0" transform="translate(262.630836 397.691646)" fill="none" stroke="#3f5787" stroke-width="3"/>
<line x1="-35.974201" y1="35.974201" x2="35.974201" y2="-35.974201" transform="translate(373.676905 361.717445)" fill="none" stroke="#3f5787" stroke-width="3"/>
<line x1="-77.873772" y1="0" x2="77.873772" y2="0" transform="translate(283.675983 444.291158)" fill="none" stroke="#3f5787" stroke-width="3"/>
<line x1="-83.937347" y1="0" x2="83.937347" y2="0" transform="translate(294.739558 506.663392)" fill="none" stroke="#3f5787" stroke-width="3"/>
<line x1="-144.562962" y1="144.562962" x2="144.562962" y2="-144.562962" transform="matrix(1.032762 0 0 1 118.067874 734.012288)" fill="none" stroke="#3f5787" stroke-width="10"/>
<line x1="-78.076474" y1="0" x2="78.076474" y2="0" transform="translate(340.70731 591.449326)" fill="none" stroke="#3f5787" stroke-width="10"/>
<line x1="-45.608109" y1="-45.608108" x2="45.608109" y2="45.608109" transform="matrix(.776578 0.037438-.032447 0.673053 449.185508 621.853528)" fill="none" stroke="#3f5787" stroke-width="12"/>
<line x1="-72.30346" y1="0" x2="72.30346" y2="0" transform="matrix(1.016356 0 0-1 552.416524 651.911283)" fill="none" stroke="#3f5787" stroke-width="10"/>
<line x1="-32.602159" y1="32.602159" x2="32.602159" y2="-32.602159" transform="matrix(1.945912 0 0 1.274122 684.564364 612.501662)" fill="none" stroke="#3f5787" stroke-width="7"/>
<ellipse rx="28.878182" ry="28.878182" transform="matrix(.925555 0 0 0.925555 769.351351 554.797297)" fill="none" stroke="#000" stroke-width="10"/>
<ellipse rx="28.878182" ry="28.878182" transform="matrix(.925555 0 0 0.925555 889.351351 374.797297)" fill="none" stroke="#000" stroke-width="10"/>
<ellipse rx="28.878182" ry="28.878182" transform="matrix(.925555 0 0 0.925555 1069.351351 574.797297)" fill="none" stroke="#000" stroke-width="10"/>
<ellipse rx="28.878182" ry="28.878182" transform="matrix(.925555 0 0 0.925555 1426.351351 594.797297)" fill="none" stroke="#000" stroke-width="10"/>
<polygon points="0,-253.357297 219.413855,-126.678648 219.413855,126.678649 0,253.357297 -219.413855,126.678649 -219.413855,-126.678648 0,-253.357297" transform="matrix(.253432 0 0 0.253432 1693.31566-27.80344)" fill="#d2dbed" stroke="#000" stroke-width="50"/>
</svg>
