<svg id="eoQJ7ZudN5p1" xmlns="http://www.w3.org/2000/svg" xmlns:xlink="http://www.w3.org/1999/xlink" viewBox="0 0 1920 1080" shape-rendering="geometricPrecision" text-rendering="geometricPrecision">
<style><![CDATA[
#eoQJ7ZudN5p2 {animation: eoQJ7ZudN5p2_c_o 1600ms linear infinite normal forwards}@keyframes eoQJ7ZudN5p2_c_o { 0% {opacity: 0.5} 75% {opacity: 0.5} 81.25% {opacity: 1} 87.5% {opacity: 0.5} 100% {opacity: 0.5}} #eoQJ7ZudN5p18 {animation: eoQJ7ZudN5p18_c_o 1600ms linear infinite normal forwards}@keyframes eoQJ7ZudN5p18_c_o { 0% {opacity: 0.5} 6.25% {opacity: 1} 12.5% {opacity: 0.5} 100% {opacity: 0.5}} #eoQJ7ZudN5p38 {animation: eoQJ7ZudN5p38_c_o 1600ms linear infinite normal forwards}@keyframes eoQJ7ZudN5p38_c_o { 0% {opacity: 0.5} 87.5% {opacity: 0.5} 93.75% {opacity: 1} 100% {opacity: 0.5}} #eoQJ7ZudN5p52 {animation: eoQJ7ZudN5p52_c_o 1600ms linear infinite normal forwards}@keyframes eoQJ7ZudN5p52_c_o { 0% {opacity: 0.5} 12.5% {opacity: 0.5} 18.75% {opacity: 1} 25% {opacity: 0.5} 100% {opacity: 0.5}} #eoQJ7ZudN5p66 {animation: eoQJ7ZudN5p66_c_o 1600ms linear infinite normal forwards}@keyframes eoQJ7ZudN5p66_c_o { 0% {opacity: 0.5} 37.5% {opacity: 0.5} 43.75% {opacity: 1} 50% {opacity: 0.5} 100% {opacity: 0.5}} #eoQJ7ZudN5p85 {animation: eoQJ7ZudN5p85_c_o 1600ms linear infinite normal forwards}@keyframes eoQJ7ZudN5p85_c_o { 0% {opacity: 0.5} 25% {opacity: 0.5} 31.25% {opacity: 1} 37.5% {opacity: 0.5} 100% {opacity: 0.5}} #eoQJ7ZudN5p92 {animation: eoQJ7ZudN5p92_c_o 1600ms linear infinite normal forwards}@keyframes eoQJ7ZudN5p92_c_o { 0% {opacity: 0.5} 62.5% {opacity: 0.5} 68.75% {opacity: 1} 75% {opacity: 0.5} 100% {opacity: 0.5}} #eoQJ7ZudN5p102 {animation: eoQJ7ZudN5p102_c_o 1600ms linear infinite normal forwards}@keyframes eoQJ7ZudN5p102_c_o { 0% {opacity: 0.5} 50% {opacity: 0.5} 56.25% {opacity: 1} 62.5% {opacity: 0.5} 100% {opacity: 0.5}}
]]></style>
<g id="eoQJ7ZudN5p2" transform="translate(0 0.000001)" opacity="0.5"><line x1="0" y1="-105.501228" x2="0" y2="105.501228" transform="matrix(1 0 0 1.433667 1736.922153 1090.25365)" fill="none" stroke="#3f5787" stroke-width="75"/><line x1="76.73671" y1="-76.736711" x2="-76.736711" y2="76.736711" transform="translate(1671.088062 349.710076)" fill="none" stroke="#3f5787" stroke-width="75"/><polygon points="0,-253.357297 219.413855,-126.678648 219.413855,126.678649 0,253.357297 -219.413855,126.678649 -219.413855,-126.678648 0,-253.357297" transform="matrix(.253432 0 0 0.253432 1748.922152 571.872238)" fill="none" stroke="#000" stroke-width="50"/><polygon points="0,-253.357297 219.413855,-126.678648 219.413855,126.678649 0,253.357297 -219.413855,126.678649 -219.413855,-126.678648 0,-253.357297" transform="matrix(.253432 0 0 0.253432 1748.922152 959.034397)" fill="#d2dbed" stroke="#000" stroke-width="50"/><polygon points="0,-253.357297 219.413855,-126.678648 219.413855,126.678649 0,253.357297 -219.413855,126.678649 -219.413855,-126.678648 0,-253.357297" transform="matrix(.253432 0 0 0.253432 1637.709168 571.872238)" fill="#d2dbed" stroke="#000" stroke-width="50"/><polygon points="0,-253.357297 219.413855,-126.678648 219.413855,126.678649 0,253.357297 -219.413855,126.678649 -219.413855,-126.678648 0,-253.357297" transform="matrix(.253432 0 0 0.253432 1693.31566 473.18182)" fill="#d2dbed" stroke="#000" stroke-width="50"/><polygon points="0,-253.357297 219.413855,-126.678648 219.413855,126.678649 0,253.357297 -219.413855,126.678649 -219.413855,-126.678648 0,-253.357297" transform="matrix(.253432 0 0 0.253432 1637.709168 762.412776)" fill="#d2dbed" stroke="#000" stroke-width="50"/><polygon points="0,-253.357297 219.413855,-126.678648 219.413855,126.678649 0,253.357297 -219.413855,126.678649 -219.413855,-126.678648 0,-253.357297" transform="matrix(.253432 0 0 0.253432 1637.709168 959.034397)" fill="#d2dbed" stroke="#000" stroke-width="50"/><polygon points="0,-253.357297 219.413855,-126.678648 219.413855,126.678649 0,253.357297 -219.413855,126.678649 -219.413855,-126.678648 0,-253.357297" transform="matrix(.253432 0 0 0.253432 1748.922152 762.412776)" fill="none" stroke="#000" stroke-width="50"/><polygon points="0,-253.357297 219.413855,-126.678648 219.413855,126.678649 0,253.357297 -219.413855,126.678649 -219.413855,-126.678648 0,-253.357297" transform="matrix(.253432 0 0 0.253432 1637.709168 375.250616)" fill="none" stroke="#000" stroke-width="50"/><polygon points="0,-253.357297 219.413855,-126.678648 219.413855,126.678649 0,253.357297 -219.413855,126.678649 -219.413855,-126.678648 0,-253.357297" transform="matrix(.253432 0 0 0.253432 1693.31566 1052.19656)" fill="#d2dbed" stroke="#000" stroke-width="50"/><polygon points="0,-253.357297 219.413855,-126.678648 219.413855,126.678649 0,253.357297 -219.413855,126.678649 -219.413855,-126.678648 0,-253.357297" transform="matrix(.253432 0 0 0.253432 1748.922152 375.250616)" fill="none" stroke="#000" stroke-width="50"/><line x1="0" y1="-105.501228" x2="0" y2="105.501228" transform="matrix(1 0 0 1.433667 1736.922153 151.25365)" fill="none" stroke="#3f5787" stroke-width="75"/><ellipse rx="28.878182" ry="28.878182" transform="matrix(.925555 0 0 0.925555 1788.651106 480.904178)" fill="none" stroke="#000" stroke-width="10"/><polygon points="0,-253.357297 219.413855,-126.678648 219.413855,126.678649 0,253.357297 -219.413855,126.678649 -219.413855,-126.678648 0,-253.357297" transform="matrix(.253432 0 0 0.253432 1693.31566-27.80344)" fill="#d2dbed" stroke="#000" stroke-width="50"/></g><g id="eoQJ7ZudN5p18" style="mix-blend-mode:luminosity" transform="translate(.000001 0)" opacity="0.5"><g transform="translate(.000001 0)"><line x1="-113.91339" y1="113.91339" x2="113.91339" y2="-113.91339" transform="translate(40.129607 41.162928)" fill="none" stroke="#3f5787" stroke-width="40"/><line x1="-130.671376" y1="130.671376" x2="130.671376" y2="-130.671376" transform="translate(93.374079 969.344134)" fill="none" stroke="#3f5787" stroke-width="3"/><line x1="-130.671376" y1="130.671376" x2="130.671376" y2="-130.671376" transform="translate(83.238944 256.713296)" fill="none" stroke="#3f5787" stroke-width="3"/><line x1="-130.671376" y1="130.671376" x2="130.671376" y2="-130.671376" transform="translate(83.238944 385.130989)" fill="none" stroke="#3f5787" stroke-width="10"/><line x1="-130.671376" y1="130.671376" x2="130.671376" y2="-130.671376" transform="translate(83.238944 254.459613)" fill="none" stroke="#3f5787" stroke-width="10"/><line x1="-130.671376" y1="130.671376" x2="130.671376" y2="-130.671376" transform="translate(83.238944 630.830621)" fill="none" stroke="#3f5787" stroke-width="3"/><line x1="-130.671376" y1="130.671376" x2="130.671376" y2="-130.671376" transform="translate(75.130835 569.712071)" fill="none" stroke="#3f5787" stroke-width="3"/><line x1="-130.671376" y1="130.671376" x2="130.671376" y2="-130.671376" transform="translate(83.238944 693.506293)" fill="none" stroke="#3f5787" stroke-width="3"/><line x1="-130.671376" y1="130.671376" x2="130.671376" y2="-130.671376" transform="translate(56.887593 523.112559)" fill="none" stroke="#3f5787" stroke-width="3"/><line x1="-130.671376" y1="130.671376" x2="130.671376" y2="-130.671376" transform="translate(78.502768 876.884877)" fill="none" stroke="#3f5787" stroke-width="3"/><ellipse rx="28.878182" ry="28.878182" transform="matrix(.925555 0 0 0.925555 235.90249 549.546834)" fill="none" stroke="#000" stroke-width="10"/><ellipse rx="28.878182" ry="28.878182" transform="matrix(.925555 0 0 0.925555 225.901189 727.111793)" fill="none" stroke="#000" stroke-width="10"/><ellipse rx="28.878182" ry="28.878182" transform="matrix(.925555 0 0 0.925555 240.638666 821.371159)" fill="none" stroke="#000" stroke-width="10"/><ellipse rx="28.878182" ry="28.878182" transform="matrix(.925555 0 0 0.925555 100.638666 1041.371159)" fill="none" stroke="#000" stroke-width="10"/><line x1="-144.562962" y1="144.562962" x2="144.562962" y2="-144.562962" transform="matrix(1.032762 0 0 1 118.067874 728.761825)" fill="none" stroke="#3f5787" stroke-width="10"/><polygon points="0,-253.357297 219.413855,-126.678648 219.413855,126.678649 0,253.357297 -219.413855,126.678649 -219.413855,-126.678648 0,-253.357297" transform="matrix(.253432 0 0 0.253432-5.258372-19.926289)" fill="#d2dbed" stroke="#000" stroke-width="50"/><polygon points="0,-253.357297 219.413855,-126.678648 219.413855,126.678649 0,253.357297 -219.413855,126.678649 -219.413855,-126.678648 0,-253.357297" transform="matrix(.253432 0 0 0.253432-5.258372 1060.073711)" fill="#d2dbed" stroke="#000" stroke-width="50"/><ellipse rx="28.878182" ry="28.878182" transform="matrix(.925555 0 0 0.925555 232.530557 110.312038)" fill="none" stroke="#000" stroke-width="10"/></g></g><g id="eoQJ7ZudN5p38" opacity="0.5"><line x1="-113.91339" y1="113.91339" x2="113.91339" y2="-113.91339" transform="translate(1875.129607 127.162928)" fill="none" stroke="#3f5787" stroke-width="40"/><line x1="-130.671376" y1="130.671376" x2="130.671376" y2="-130.671376" transform="translate(1932.238944 455.130989)" fill="none" stroke="#3f5787" stroke-width="10"/><line x1="-130.671376" y1="130.671376" x2="130.671376" y2="-130.671376" transform="translate(1929.238944 327.459613)" fill="none" stroke="#3f5787" stroke-width="10"/><line x1="-130.671376" y1="130.671376" x2="130.671376" y2="-130.671376" transform="translate(1929.238944 709.830621)" fill="none" stroke="#3f5787" stroke-width="3"/><line x1="-130.671376" y1="130.671376" x2="130.671376" y2="-130.671376" transform="translate(1931.130835 633.712071)" fill="none" stroke="#3f5787" stroke-width="3"/><line x1="-130.671376" y1="130.671376" x2="130.671376" y2="-130.671376" transform="translate(1910.887593 589.112559)" fill="none" stroke="#3f5787" stroke-width="3"/><line x1="-144.562962" y1="144.562962" x2="144.562962" y2="-144.562962" transform="matrix(1.032762 0 0 1 1964.067874 799.761825)" fill="none" stroke="#3f5787" stroke-width="10"/><polygon points="0,-253.357297 219.413855,-126.678648 219.413855,126.678649 0,253.357297 -219.413855,126.678649 -219.413855,-126.678648 0,-253.357297" transform="matrix(.253432 0 0 0.253432 1915.741628 1060.073711)" fill="#d2dbed" stroke="#000" stroke-width="50"/><polygon points="0,-253.357297 219.413855,-126.678648 219.413855,126.678649 0,253.357297 -219.413855,126.678649 -219.413855,-126.678648 0,-253.357297" transform="matrix(.253432 0 0 0.253432 1915.741628-20.926289)" fill="#d2dbed" stroke="#000" stroke-width="50"/><polygon points="0,-253.357297 219.413855,-126.678648 219.413855,126.678649 0,253.357297 -219.413855,126.678649 -219.413855,-126.678648 0,-253.357297" transform="matrix(.253432 0 0 0.253432 1804.528644 671.911552)" fill="none" stroke="#000" stroke-width="50"/><polygon points="0,-253.357297 219.413855,-126.678648 219.413855,126.678649 0,253.357297 -219.413855,126.678649 -219.413855,-126.678648 0,-253.357297" transform="matrix(.253432 0 0 0.253432 1860.135136 959.034397)" fill="#d2dbed" stroke="#000" stroke-width="50"/><polygon points="0,-253.357297 219.413855,-126.678648 219.413855,126.678649 0,253.357297 -219.413855,126.678649 -219.413855,-126.678648 0,-253.357297" transform="matrix(.253432 0 0 0.253432 1804.528644 860.343981)" fill="#d2dbed" stroke="#000" stroke-width="50"/><polygon points="0,-253.357297 219.413855,-126.678648 219.413855,126.678649 0,253.357297 -219.413855,126.678649 -219.413855,-126.678648 0,-253.357297" transform="matrix(.253432 0 0 0.253432 1860.135136 762.412776)" fill="#d2dbed" stroke="#000" stroke-width="50"/></g><g id="eoQJ7ZudN5p52" opacity="0.5"><line x1="-83.937347" y1="0" x2="83.937347" y2="0" transform="translate(296.739558 500.412929)" fill="none" stroke="#3f5787" stroke-width="3"/><polygon points="0,-253.357297 219.413855,-126.678648 219.413855,126.678649 0,253.357297 -219.413855,126.678649 -219.413855,-126.678648 0,-253.357297" transform="matrix(.253432 0 0 0.253432 497.810032 415.966986)" fill="none" stroke="#000" stroke-width="50"/><polygon points="0,-253.357297 219.413855,-126.678648 219.413855,126.678649 0,253.357297 -219.413855,126.678649 -219.413855,-126.678648 0,-253.357297" transform="matrix(.253432 0 0 0.253432 509.18919 800.329244)" fill="none" stroke="#000" stroke-width="50"/><line x1="-147.639435" y1="0" x2="147.639435" y2="0" transform="translate(358.441646 255.710076)" fill="none" stroke="#3f5787" stroke-width="10"/><ellipse rx="28.878182" ry="28.878182" transform="matrix(.925555 0 0 0.925555 536.067372 255.710076)" fill="none" stroke="#000" stroke-width="10"/><ellipse rx="28.878182" ry="28.878182" transform="matrix(.925555 0 0 0.925555 409.651106 506.904178)" fill="none" stroke="#000" stroke-width="10"/><line x1="-77.873772" y1="0" x2="77.873772" y2="0" transform="translate(282.675983 439.291158)" fill="none" stroke="#3f5787" stroke-width="3"/><ellipse rx="28.878182" ry="28.878182" transform="matrix(.925555 0 0 0.925555 382.92276 440.453474)" fill="none" stroke="#000" stroke-width="10"/><line x1="-35.974201" y1="35.974201" x2="35.974201" y2="-35.974201" transform="matrix(1.027798 0 0 0.854049 372.676905 362.717445)" fill="none" stroke="#3f5787" stroke-width="3"/><ellipse rx="28.878182" ry="28.878182" transform="matrix(.925555 0 0 0.925555 426.854352 312.691802)" fill="none" stroke="#000" stroke-width="10"/><line x1="-75.071867" y1="0" x2="75.071867" y2="0" transform="translate(261.630836 392.691646)" fill="none" stroke="#3f5787" stroke-width="3"/><line x1="-78.076474" y1="0" x2="78.076474" y2="0" transform="translate(340.70731 586.198863)" fill="none" stroke="#3f5787" stroke-width="10"/><line x1="-45.608109" y1="-45.608108" x2="45.608109" y2="45.608109" transform="matrix(.99518 0.047977-.031939 0.662515 458.582698 616.603045)" fill="none" stroke="#3f5787" stroke-width="12"/></g><g id="eoQJ7ZudN5p66" transform="translate(0 0.000001)" opacity="0.5"><line x1="0" y1="-105.501228" x2="0" y2="105.501228" transform="translate(914.824772 780.501228)" fill="none" stroke="#3f5787" stroke-width="75"/><line x1="0" y1="-105.501228" x2="0" y2="105.501228" transform="translate(914.824772 703.501228)" fill="none" stroke="#3f5787" stroke-width="75"/><line x1="0" y1="-105.501228" x2="0" y2="105.501228" transform="translate(914.824772 985.501228)" fill="none" stroke="#3f5787" stroke-width="75"/><line x1="76.73671" y1="-76.736711" x2="-76.736711" y2="76.736711" transform="matrix(0 1-1 0 851.088062 546.710076)" fill="none" stroke="#3f5787" stroke-width="75"/><line x1="76.73671" y1="-76.736711" x2="-76.736711" y2="76.736711" transform="translate(969.431265 260.683437)" fill="none" stroke="#3f5787" stroke-width="75"/><line x1="0" y1="-105.501228" x2="0" y2="105.501228" transform="translate(1035.167976 103.474588)" fill="none" stroke="#3f5787" stroke-width="75"/><line x1="0" y1="-105.501228" x2="0" y2="105.501228" transform="translate(1035.167976 983.474588)" fill="none" stroke="#3f5787" stroke-width="75"/><line x1="0" y1="-105.501228" x2="0" y2="105.501228" transform="translate(1035.167976 778.474588)" fill="none" stroke="#3f5787" stroke-width="75"/><line x1="0" y1="-105.501228" x2="0" y2="105.501228" transform="translate(1035.167976 705.474588)" fill="none" stroke="#3f5787" stroke-width="75"/><polygon points="0,-253.357297 219.413855,-126.678648 219.413855,126.678649 0,253.357297 -219.413855,126.678649 -219.413855,-126.678648 0,-253.357297" transform="matrix(.253432 0 0 0.253432 803.611788 669.803442)" fill="none" stroke="#000" stroke-width="50"/><polygon points="0,-253.357297 219.413855,-126.678648 219.413855,126.678649 0,253.357297 -219.413855,126.678649 -219.413855,-126.678648 0,-253.357297" transform="matrix(.253432 0 0 0.253432 914.824772 669.803442)" fill="none" stroke="#000" stroke-width="50"/><polygon points="0,-253.357297 219.413855,-126.678648 219.413855,126.678649 0,253.357297 -219.413855,126.678649 -219.413855,-126.678648 0,-253.357297" transform="matrix(.253432 0 0 0.253432 970.431265 571.872238)" fill="none" stroke="#000" stroke-width="50"/><polygon points="0,-253.357297 219.413855,-126.678648 219.413855,126.678649 0,253.357297 -219.413855,126.678649 -219.413855,-126.678648 0,-253.357297" transform="matrix(.253432 0 0 0.253432 1081.644248 571.113024)" fill="none" stroke="#000" stroke-width="50"/><polygon points="0,-253.357297 219.413855,-126.678648 219.413855,126.678649 0,253.357297 -219.413855,126.678649 -219.413855,-126.678648 0,-253.357297" transform="matrix(.253432 0 0 0.253432 1081.644248 176.520884)" fill="none" stroke="#000" stroke-width="50"/><line x1="0" y1="-105.501228" x2="0" y2="105.501228" transform="translate(914.824772 105.501228)" fill="none" stroke="#3f5787" stroke-width="75"/><line x1="76.73671" y1="-76.736711" x2="-76.736711" y2="76.736711" transform="translate(850.088062 259.710076)" fill="none" stroke="#3f5787" stroke-width="75"/><ellipse rx="28.878182" ry="28.878182" transform="matrix(.925555 0 0 0.925555 889.351351 374.797297)" fill="none" stroke="#000" stroke-width="10"/><ellipse rx="28.878182" ry="28.878182" transform="matrix(.925555 0 0 0.925555 1069.351351 574.797297)" fill="none" stroke="#000" stroke-width="10"/></g><g id="eoQJ7ZudN5p85" opacity="0.5"><line x1="0" y1="-93.133683" x2="0" y2="93.133682" transform="translate(785.675675 405.657472)" fill="none" stroke="#3f5787" stroke-width="75"/><polygon points="0,-253.357297 219.413855,-126.678648 219.413855,126.678649 0,253.357297 -219.413855,126.678649 -219.413855,-126.678648 0,-253.357297" transform="matrix(.253432 0 0 0.253432 721.150265 195.50123)" fill="#d2dbed" stroke="#000" stroke-width="50"/><polygon points="0,-253.357297 219.413855,-126.678648 219.413855,126.678649 0,253.357297 -219.413855,126.678649 -219.413855,-126.678648 0,-253.357297" transform="matrix(.253432 0 0 0.253432 748.005296 762.965602)" fill="none" stroke="#000" stroke-width="50"/><line x1="-72.30346" y1="0" x2="72.30346" y2="0" transform="matrix(.907377 0 0-1 563.416524 646.911283)" fill="none" stroke="#3f5787" stroke-width="10"/><line x1="-32.602159" y1="32.602159" x2="32.602159" y2="-32.602159" transform="matrix(1.841748 0 0 1.119728 684.564364 612.501662)" fill="none" stroke="#3f5787" stroke-width="7"/><ellipse rx="28.878182" ry="28.878182" transform="matrix(.925555 0 0 0.925555 762.351351 554.797297)" fill="none" stroke="#000" stroke-width="10"/></g><g id="eoQJ7ZudN5p92" opacity="0.5"><line x1="76.73671" y1="-76.736711" x2="-76.736711" y2="76.736711" transform="translate(1521.088062 499.710076)" fill="none" stroke="#3f5787" stroke-width="75"/><polygon points="0,-253.357297 219.413855,-126.678648 219.413855,126.678649 0,253.357297 -219.413855,126.678649 -219.413855,-126.678648 0,-253.357297" transform="matrix(.253432 0 0 0.253432 1415.2832 769.842756)" fill="none" stroke="#000" stroke-width="50"/><polygon points="0,-253.357297 219.413855,-126.678648 219.413855,126.678649 0,253.357297 -219.413855,126.678649 -219.413855,-126.678648 0,-253.357297" transform="matrix(.253432 0 0 0.253432 1415.2832 375.250616)" fill="#d2dbed" stroke="#000" stroke-width="50"/><polygon points="0,-253.357297 219.413855,-126.678648 219.413855,126.678649 0,253.357297 -219.413855,126.678649 -219.413855,-126.678648 0,-253.357297" transform="matrix(.253432 0 0 0.253432 1526.496184 375.250616)" fill="#d2dbed" stroke="#000" stroke-width="50"/><polygon points="0,-253.357297 219.413855,-126.678648 219.413855,126.678649 0,253.357297 -219.413855,126.678649 -219.413855,-126.678648 0,-253.357297" transform="matrix(.253432 0 0 0.253432 1582.102676 860.343981)" fill="#d2dbed" stroke="#000" stroke-width="50"/><polygon points="0,-253.357297 219.413855,-126.678648 219.413855,126.678649 0,253.357297 -219.413855,126.678649 -219.413855,-126.678648 0,-253.357297" transform="matrix(.253432 0 0 0.253432 1470.889692 473.18182)" fill="none" stroke="#000" stroke-width="50"/><polygon points="0,-253.357297 219.413855,-126.678648 219.413855,126.678649 0,253.357297 -219.413855,126.678649 -219.413855,-126.678648 0,-253.357297" transform="matrix(.253432 0 0 0.253432 1526.496184 571.872238)" fill="none" stroke="#000" stroke-width="50"/><polygon points="0,-253.357297 219.413855,-126.678648 219.413855,126.678649 0,253.357297 -219.413855,126.678649 -219.413855,-126.678648 0,-253.357297" transform="matrix(.253432 0 0 0.253432 1582.102676 666.034398)" fill="none" stroke="#000" stroke-width="50"/><ellipse rx="28.878182" ry="28.878182" transform="matrix(.925555 0 0 0.925555 1426.351351 594.797297)" fill="none" stroke="#000" stroke-width="10"/></g><g id="eoQJ7ZudN5p102" transform="translate(0 0.000001)" opacity="0.5"><polygon points="0,-253.357297 219.413855,-126.678648 219.413855,126.678649 0,253.357297 -219.413855,126.678649 -219.413855,-126.678648 0,-253.357297" transform="matrix(.253432 0 0 0.253432 1359.676708 669.803442)" fill="none" stroke="#000" stroke-width="50"/><polygon points="0,-253.357297 219.413855,-126.678648 219.413855,126.678649 0,253.357297 -219.413855,126.678649 -219.413855,-126.678648 0,-253.357297" transform="matrix(.253432 0 0 0.253432 1359.676708 275.211302)" fill="#d2dbed" stroke="#000" stroke-width="50"/><polygon points="0,-253.357297 219.413855,-126.678648 219.413855,126.678649 0,253.357297 -219.413855,126.678649 -219.413855,-126.678648 0,-253.357297" transform="matrix(.253432 0 0 0.253432 1248.463724 669.803442)" fill="#d2dbed" stroke="#000" stroke-width="50"/><polygon points="0,-253.357297 219.413855,-126.678648 219.413855,126.678649 0,253.357297 -219.413855,126.678649 -219.413855,-126.678648 0,-253.357297" transform="matrix(.253432 0 0 0.253432 1248.463724 275.211302)" fill="none" stroke="#000" stroke-width="50"/><polygon points="0,-253.357297 219.413855,-126.678648 219.413855,126.678649 0,253.357297 -219.413855,126.678649 -219.413855,-126.678648 0,-253.357297" transform="matrix(.253432 0 0 0.253432 1304.070216 571.113024)" fill="none" stroke="#000" stroke-width="50"/><polygon points="0,-253.357297 219.413855,-126.678648 219.413855,126.678649 0,253.357297 -219.413855,126.678649 -219.413855,-126.678648 0,-253.357297" transform="matrix(.253432 0 0 0.253432 1304.070216 176.520884)" fill="#d2dbed" stroke="#000" stroke-width="50"/><polygon points="0,-253.357297 219.413855,-126.678648 219.413855,126.678649 0,253.357297 -219.413855,126.678649 -219.413855,-126.678648 0,-253.357297" transform="matrix(.253432 0 0 0.253432 1137.25074 473.18182)" fill="#d2dbed" stroke="#000" stroke-width="50"/><polygon points="0,-253.357297 219.413855,-126.678648 219.413855,126.678649 0,253.357297 -219.413855,126.678649 -219.413855,-126.678648 0,-253.357297" transform="matrix(.253432 0 0 0.253432 1137.25074 78.58968)" fill="none" stroke="#000" stroke-width="50"/><polygon points="0,-253.357297 219.413855,-126.678648 219.413855,126.678649 0,253.357297 -219.413855,126.678649 -219.413855,-126.678648 0,-253.357297" transform="matrix(.253432 0 0 0.253432 1137.25074 669.803442)" fill="#d2dbed" stroke="#000" stroke-width="50"/><polygon points="0,-253.357297 219.413855,-126.678648 219.413855,126.678649 0,253.357297 -219.413855,126.678649 -219.413855,-126.678648 0,-253.357297" transform="matrix(.253432 0 0 0.253432 1137.25074 275.211302)" fill="none" stroke="#000" stroke-width="50"/><polygon points="0,-253.357297 219.413855,-126.678648 219.413855,126.678649 0,253.357297 -219.413855,126.678649 -219.413855,-126.678648 0,-253.357297" transform="matrix(.253432 0 0 0.253432 1248.463724 473.18182)" fill="#d2dbed" stroke="#000" stroke-width="50"/><polygon points="0,-253.357297 219.413855,-126.678648 219.413855,126.678649 0,253.357297 -219.413855,126.678649 -219.413855,-126.678648 0,-253.357297" transform="matrix(.253432 0 0 0.253432 1248.463724 78.58968)" fill="none" stroke="#000" stroke-width="50"/><polygon points="0,-253.357297 219.413855,-126.678648 219.413855,126.678649 0,253.357297 -219.413855,126.678649 -219.413855,-126.678648 0,-253.357297" transform="matrix(.253432 0 0 0.253432 1192.857232 762.965602)" fill="#d2dbed" stroke="#000" stroke-width="50"/><polygon points="0,-253.357297 219.413855,-126.678648 219.413855,126.678649 0,253.357297 -219.413855,126.678649 -219.413855,-126.678648 0,-253.357297" transform="matrix(.253432 0 0 0.253432 1192.857232 373.373462)" fill="#d2dbed" stroke="#000" stroke-width="50"/><polygon points="0,-253.357297 219.413855,-126.678648 219.413855,126.678649 0,253.357297 -219.413855,126.678649 -219.413855,-126.678648 0,-253.357297" transform="matrix(.253432 0 0 0.253432 1359.676708 473.18182)" fill="#d2dbed" stroke="#000" stroke-width="50"/><polygon points="0,-253.357297 219.413855,-126.678648 219.413855,126.678649 0,253.357297 -219.413855,126.678649 -219.413855,-126.678648 0,-253.357297" transform="matrix(.253432 0 0 0.253432 1359.676708 78.58968)" fill="none" stroke="#000" stroke-width="50"/></g></svg>
