<svg xmlns="http://www.w3.org/2000/svg" viewBox="0 0 2850 2779" xml:space="preserve"><path fill="none" d="M2852 968v1813.92H2.207V2.33H2852V968M31.628 1645.377c11.975 63.564 28.92 125.777 50.111 186.888a1358.593 1358.593 0 0 0 76.733 178.782 1382.314 1382.314 0 0 0 77.48 131.602c47.356 71.134 100.812 137.372 160.491 198.456 25.341 25.938 51.8 50.89 78.971 74.91a1368.005 1368.005 0 0 0 162.96 123.657c44.229 28.627 89.786 54.902 136.806 78.614 48.794 24.606 98.934 46.175 150.195 65.123 46.872 17.327 94.58 32.038 142.999 44.302 58.131 14.724 116.99 25.696 176.522 33.206 44.884 5.664 89.917 9.748 135.08 10.798 49.587 1.153 99.278 1.59 148.762-3.097 37.384-3.542 74.82-7.008 111.99-12.236 93.904-13.209 185.404-36.449 274.734-68.295 75.13-26.783 147.597-59.458 217.235-98.31 66.434-37.063 129.583-79.12 189.185-126.435 33.904-26.914 67.08-54.71 97.747-85.301 26.867-26.8 54-53.419 79.45-81.534 35.979-39.744 69.064-81.932 99.89-125.855 40.247-57.35 76.476-117.16 107.026-180.169 18.131-37.397 34.201-75.846 49.938-114.337 20.937-51.21 36.945-104.107 50.371-157.76 14.715-58.801 25.547-118.29 32.161-178.584 3.882-35.384 7.234-70.803 7.659-106.37.708-59.233 1.154-118.504-5.902-177.494-2.882-24.09-5.316-48.259-9.094-72.212-7.415-47.013-17.004-93.599-29.293-139.623-13.321-49.892-29.29-98.902-48.173-146.946-17.793-45.272-37.358-89.792-60.523-132.588-16.313-30.136-33.157-60.025-50.887-89.345-24.14-39.921-51.237-77.855-79.55-114.967-33.37-43.741-69.909-84.663-107.911-124.328-11.279-11.773-23.302-22.84-35.156-34.05-13.777-13.03-27.402-26.25-41.69-38.705-45.47-39.64-93.007-76.65-143.16-110.214-57.647-38.578-117.283-73.782-180.348-102.78-35.982-16.545-72.296-32.506-109.13-47.03-73.869-29.124-150.087-50.667-227.872-66.478-46.656-9.484-93.652-17.16-141.128-21.221-34.115-2.918-68.272-6.36-102.465-7.12-49.255-1.093-98.543-.84-147.797 2.757-41.527 3.033-82.868 7.472-123.942 13.907-73.422 11.504-145.6 28.463-216.483 51.03-69.01 21.97-135.948 48.989-200.874 80.935-60.446 29.742-118.396 63.827-174.052 101.846-67.26 45.947-129.878 97.55-188.443 154.069-32.596 31.457-63.089 64.934-92.37 99.503-69.177 81.67-127.942 170.332-176.21 265.77-18.01 35.61-34.11 72.283-49.2 109.24-13.19 32.307-24.425 65.469-35.304 98.653-16.917 51.601-29.995 104.271-39.244 157.782-5.602 32.41-10.265 65.016-14.176 97.675-3.354 28.017-6.053 56.192-7.199 84.372-1.326 32.61-.708 65.3-.782 97.957-.026 11.658-.165 23.36.72 34.967 2.12 27.818 3.997 55.696 7.493 83.358 4.29 33.953 10.129 67.71 15.649 103.225z"/><path fill="#00309D" d="M31.452 1644.54c-5.344-34.678-11.183-68.435-15.473-102.388-3.496-27.662-5.372-55.54-7.493-83.358-.885-11.608-.746-23.309-.72-34.967.074-32.656-.544-65.348.782-97.957 1.146-28.18 3.845-56.355 7.2-84.372 3.91-32.659 8.573-65.265 14.175-97.675 9.249-53.511 22.327-106.181 39.244-157.782 10.879-33.184 22.113-66.346 35.305-98.653 15.09-36.957 31.19-73.63 49.199-109.24 48.268-95.438 107.033-184.1 176.21-265.77 29.281-34.569 59.774-68.046 92.37-99.503 58.565-56.519 121.183-108.122 188.443-154.069C666.35 220.787 724.3 186.702 784.746 156.96c64.926-31.946 131.863-58.964 200.874-80.935 70.884-22.567 143.061-39.526 216.483-51.03 41.074-6.435 82.415-10.874 123.942-13.907 49.254-3.597 98.542-3.85 147.797-2.757 34.193.76 68.35 4.202 102.465 7.12 47.476 4.06 94.472 11.737 141.128 21.221 77.785 15.811 154.003 37.354 227.871 66.479 36.835 14.523 73.15 30.484 109.131 47.029 63.065 28.998 122.701 64.202 180.348 102.78 50.153 33.563 97.69 70.574 143.16 110.214 14.288 12.454 27.913 25.676 41.69 38.705 11.854 11.21 23.877 22.277 35.156 34.05 38.002 39.665 74.541 80.587 107.911 124.328 28.313 37.112 55.41 75.046 79.55 114.967 17.73 29.32 34.574 59.209 50.887 89.345 23.165 42.796 42.73 87.316 60.523 132.588 18.882 48.044 34.852 97.054 48.173 146.946 12.289 46.024 21.878 92.61 29.293 139.623 3.778 23.953 6.212 48.122 9.094 72.212 7.056 58.99 6.61 118.26 5.902 177.495-.425 35.566-3.777 70.985-7.659 106.37-6.614 60.293-17.446 119.782-32.16 178.582-13.427 53.654-29.435 106.55-50.372 157.76-15.737 38.492-31.807 76.941-49.938 114.338-30.55 63.009-66.779 122.82-107.027 180.17-30.825 43.922-63.91 86.11-99.888 125.854-25.451 28.115-52.584 54.733-79.45 81.534-30.668 30.59-63.844 58.387-97.748 85.301-59.602 47.315-122.751 89.372-189.185 126.436-69.638 38.85-142.106 71.526-217.235 98.31-89.33 31.845-180.83 55.085-274.735 68.294-37.17 5.228-74.605 8.694-111.989 12.236-49.484 4.688-99.175 4.25-148.761 3.097-45.164-1.05-90.197-5.134-135.081-10.798-59.532-7.51-118.39-18.482-176.522-33.206-48.42-12.264-96.127-26.975-143-44.302-51.26-18.948-101.4-40.517-150.194-65.123-47.02-23.712-92.577-49.987-136.806-78.614a1368.005 1368.005 0 0 1-162.96-123.657c-27.17-24.02-53.63-48.972-78.97-74.91-59.68-61.084-113.136-127.322-160.492-198.456a1382.314 1382.314 0 0 1-77.48-131.602 1358.593 1358.593 0 0 1-76.733-178.782c-21.192-61.111-38.136-123.324-50.287-187.725M633.99 651.026c3.372-9.753 6.508-19.595 10.155-29.244 24.547-64.944 58.715-123.892 108.47-173.036 36.58-36.132 77.604-65.888 124.66-87.084 60.47-27.238 124.317-38.984 190.118-41.075 53.461-1.698 106.505 2.828 159 13.429 61.09 12.337 119.244 32.843 174.4 61.89 56.528 29.768 108.963 65.624 158.004 106.456 6.595 5.491 12.99 6.87 20.918 4.783V284.123c-1.469-.852-2.57-1.582-3.747-2.16-45.432-22.327-91.588-42.97-138.979-60.858-92.947-35.083-189.005-55.355-288.168-60.51-46.636-2.424-93.253-1.326-139.81 3.053-47.892 4.504-94.924 13.272-141.12 26.542-61.506 17.667-119.622 43.124-173.362 77.914-85.173 55.14-150.804 128.482-198.83 217.564-47.726 88.527-74.269 183.718-85.302 283.242-4.068 36.7-5.657 73.756-6.648 110.696-2.197 81.9 4.627 163.123 22.434 243.209 22.033 99.09 60.905 190.707 122.53 271.976 42.808 56.454 95.233 102.247 155.713 138.9 13.605 8.244 27.7 15.682 42.406 23.962v930.705h9.927c153.329-.001 306.658.061 459.987-.037 57.703-.037 115.209-2.715 172.3-12.156 73.411-12.14 141.096-38.091 202.226-80.88 83.154-58.205 134.953-136.572 153.28-236.687 1.206-6.588 2.39-13.18 3.977-21.934 1.74 3.588 2.468 5.02 3.137 6.481 26.852 58.672 72.463 95.155 134.072 111.893 28.572 7.763 57.897 7.666 87.354 5.37 49.45-3.854 95.229-18.791 137.388-44.515 17.32-10.567 33.556-22.907 50.325-34.38 1.941-1.329 4.146-2.271 7.597-4.13v66.78c35.613-.011 70.407.016 105.6-.017v-7.414c-.008-141.662-.03-283.325-.016-424.988.002-20.732-1.877-41.313-6.276-61.53-10.533-48.417-35.636-86.969-77.934-113.849-33.67-21.396-71.03-31.2-109.998-36.431-37.798-5.075-75.76-5.325-113.76-3.902-49.12 1.84-97.216 11.015-145.179 20.95-9.662 2.002-19.202 4.593-28.477 6.835v108.04c1.849.082 3.289.514 4.473.138a754.995 754.995 0 0 0 20.8-6.957c67.805-23.713 136.984-39.274 209.447-34.945 21.957 1.311 43.834 3.463 65 10.024 19.089 5.918 36.237 15.072 49.767 30.164 24.403 27.219 27.247 60.143 25.631 94.745-1.851.34-3.098.692-4.363.785-46.52 3.4-93.06 6.523-139.554 10.242-34.878 2.79-69.554 7.28-103.568 15.868-35.996 9.09-70.794 21.037-101.978 41.92-33.72 22.582-58.553 52.068-71.744 90.82-.68 1.995-1.715 3.87-3.085 6.91-.652-2.393-.946-3.329-1.16-4.282-18.19-80.924-61.483-145.142-128.788-193.327-43.478-31.128-92.305-49.876-144.017-61.886-2.83-.657-5.6-1.562-7.888-2.208-2.202-6.889 2.49-8.238 6.25-10.21 28.472-14.923 54.733-33.005 78.445-54.755 31.869-29.23 57.288-63.016 73.294-103.479.924-2.335 2.035-4.597 3.162-7.124 25.969 14.439 52.93 23.748 81.045 29.919 43.105 9.46 86.618 10.212 130.246 5.317 31.27-3.508 61.51-11.589 90.21-24.631 66.47-30.206 114.04-79.752 146.11-144.661 24.561-49.713 35.648-102.962 39.6-157.889 3.82-53.124 1.218-105.923-9.867-158.095-11.077-52.13-31.164-100.365-63.886-142.87-37.443-48.635-84.75-83.477-143.701-101.554-63.535-19.483-127.895-20.787-192.527-6.424-77.664 17.26-137.506 60.605-181.113 126.627-35.526 53.787-52.32 113.946-58.643 177.462-1.133 11.38-1.896 22.795-2.888 34.906-3.47-1.225-5.958-2.047-8.404-2.974-34.444-13.054-70.102-21.036-106.624-25.234-44.744-5.145-89.713-7.511-134.693-7.694-150.993-.612-301.99-.5-452.985-.624-2.514-.002-5.029.503-7.123.727-.458 1.089-.69 1.383-.69 1.678-.163 56.32-.31 112.639-.473 168.958 0 .292-.16.662-.372.851-.23.205-.61.242-1.545.568-5.908-6.791-12.192-13.604-18.023-20.785-44.728-55.07-75.042-117.724-96.302-184.97-19.629-62.087-27.535-126.161-29.683-190.947-1.658-49.988-.45-99.965 5.83-149.698 5.559-44.012 13.556-87.496 28.005-131.237M2435.743 1209v-100.116H2298.84v1136.4h136.902V1209m-166.001 214V456.204h-137.053v1136.08h137.053V1423z"/><path fill="#FEFEFF" d="M633.786 651.795c-14.245 42.972-22.242 86.456-27.8 130.468-6.281 49.733-7.489 99.71-5.831 149.698 2.148 64.786 10.054 128.86 29.683 190.948 21.26 67.245 51.574 129.899 96.302 184.97 5.831 7.18 12.115 13.993 18.023 20.784.935-.326 1.315-.363 1.545-.568.213-.19.371-.56.372-.85.163-56.32.31-112.64.473-168.959 0-.295.232-.59.69-1.678 2.094-.224 4.609-.73 7.123-.727 150.995.124 301.992.012 452.985.624 44.98.183 89.95 2.55 134.693 7.694 36.522 4.198 72.18 12.18 106.624 25.234 2.446.927 4.933 1.75 8.404 2.974.992-12.111 1.755-23.527 2.888-34.906 6.323-63.516 23.117-123.675 58.643-177.462 43.607-66.022 103.449-109.367 181.113-126.627 64.632-14.363 128.992-13.06 192.527 6.424 58.951 18.077 106.258 52.92 143.7 101.555 32.723 42.504 52.81 90.739 63.887 142.869 11.085 52.172 13.687 104.971 9.866 158.095-3.95 54.927-15.038 108.176-39.6 157.889-32.07 64.91-79.64 114.455-146.108 144.66-28.701 13.043-58.941 21.124-90.211 24.632-43.628 4.895-87.141 4.143-130.246-5.317-28.116-6.171-55.076-15.48-81.045-29.919-1.127 2.527-2.238 4.789-3.162 7.124-16.006 40.463-41.425 74.248-73.294 103.48-23.712 21.749-49.973 39.831-78.445 54.755-3.76 1.97-8.452 3.32-6.25 10.209 2.287.646 5.059 1.551 7.888 2.208 51.712 12.01 100.539 30.758 144.017 61.886 67.305 48.185 110.598 112.403 128.787 193.327.215.953.51 1.889 1.161 4.282 1.37-3.04 2.406-4.915 3.085-6.91 13.191-38.752 38.025-68.238 71.744-90.82 31.184-20.883 65.982-32.83 101.978-41.92 34.014-8.589 68.69-13.079 103.568-15.868 46.494-3.719 93.035-6.841 139.554-10.242 1.265-.093 2.512-.445 4.363-.785 1.616-34.602-1.228-67.526-25.631-94.745-13.53-15.092-30.678-24.246-49.768-30.164-21.165-6.56-43.042-8.713-65-10.024-72.462-4.33-141.641 11.232-209.447 34.945a754.995 754.995 0 0 1-20.8 6.957c-1.183.376-2.623-.056-4.472-.138v-108.04c9.275-2.242 18.815-4.833 28.477-6.834 47.963-9.936 96.06-19.112 145.179-20.95 38-1.424 75.962-1.174 113.76 3.9 38.968 5.233 76.329 15.036 109.998 36.432 42.298 26.88 67.4 65.432 77.934 113.849 4.399 20.217 6.278 40.798 6.276 61.53-.013 141.663.008 283.326.017 424.988v7.414c-35.194.033-69.988.006-105.601.017v-66.78c-3.451 1.859-5.656 2.801-7.597 4.13-16.77 11.473-33.006 23.813-50.325 34.38-42.159 25.724-87.938 40.661-137.388 44.515-29.457 2.296-58.782 2.393-87.354-5.37-61.61-16.738-107.22-53.221-134.072-111.893-.669-1.46-1.398-2.893-3.137-6.481-1.587 8.754-2.77 15.346-3.977 21.934-18.327 100.115-70.126 178.482-153.28 236.687-61.13 42.789-128.815 68.74-202.226 80.88-57.091 9.44-114.597 12.12-172.3 12.156-153.329.098-306.658.036-459.987.037h-9.927v-930.705c-14.706-8.28-28.8-15.718-42.406-23.963-60.48-36.652-112.905-82.445-155.713-138.899-61.625-81.269-100.497-172.886-122.53-271.976-17.807-80.086-24.63-161.308-22.434-243.21.991-36.94 2.58-73.996 6.648-110.695 11.033-99.524 37.576-194.715 85.302-283.242 48.026-89.082 113.657-162.425 198.83-217.564 53.74-34.79 111.856-60.247 173.361-77.914 46.197-13.27 93.229-22.038 141.12-26.542 46.558-4.379 93.175-5.477 139.81-3.053 99.164 5.155 195.222 25.427 288.17 60.51 47.39 17.888 93.546 38.531 138.978 60.858 1.176.578 2.278 1.308 3.747 2.16v223.022c-7.927 2.088-14.323.708-20.918-4.783-49.04-40.832-101.476-76.688-158.003-106.456-55.157-29.047-113.311-49.553-174.402-61.89-52.494-10.601-105.538-15.127-159-13.429-65.8 2.091-129.648 13.837-190.117 41.075-47.056 21.196-88.08 50.952-124.66 87.084-49.755 49.144-83.923 108.092-108.47 173.036-3.647 9.65-6.783 19.491-10.359 30.013m930.7 1477.596c.8-10.955 1.99-21.898 2.324-32.867.997-32.732-1.097-65.224-8.78-97.19-7.47-31.085-21.049-58.827-44.514-81.127-38.12-36.228-83.8-57.18-135.186-66.189-38.811-6.803-78.106-9.362-117.4-9.645-110.282-.796-220.572-.688-330.859-.906-1.874-.004-3.75.378-5.47.563-2.032 19.929-1.193 487.573.99 495.407h10.683c57.977 0 115.957.424 173.929-.126 51.294-.487 102.604-1.407 153.86-3.366 37.273-1.425 74.343-5.877 110.852-14.004 42.839-9.535 82.241-26.24 116.252-54.74 41.98-35.178 67.459-79.145 73.32-135.81m388.372-1087.133c-1.514-2.585-2.994-5.19-4.546-7.753-25.364-41.872-61.474-69.307-109.156-81.152-30.837-7.66-62.023-7.978-93.241-3.378-47.285 6.967-85.947 29.229-114.984 67.352-23.754 31.186-35.793 67.35-42.875 105.367-9.153 49.13-9.721 98.641-5.97 148.32.342 4.543 1.834 8.198 4.63 11.76a180.786 180.786 0 0 1 11.448 16.343c22.369 36.08 33.972 75.682 37.677 117.713.477 5.41 2.434 9.413 5.816 13.265 19.311 21.994 42.782 37.977 70.284 47.743 31.265 11.101 63.539 13.733 96.479 10.478 57.612-5.693 102.826-32.168 134.972-80.344 24.419-36.595 35.214-77.956 40.579-120.98 5.756-46.157 5.549-92.373-.035-138.535-4.426-36.59-13.271-71.957-31.078-106.199m77.417 1115.313c10.556-2.978 21.395-5.207 31.617-9.07 36.697-13.866 69.97-33.949 101.515-57.095 4.238-3.109 4.476-6.772 4.47-11.225-.069-53.312-.036-106.624-.07-159.937-.003-2.563-.388-5.127-.646-8.332-5.197.253-9.811.376-14.41.718-22.918 1.705-45.833 3.472-68.75 5.207-35.864 2.716-71.708 5.537-107.129 12.21-27.332 5.148-53.651 12.976-77.607 27.601-25.463 15.546-44.366 36.195-50.683 66.215-4.881 23.196-4.114 46.367 2.727 69.157 6.387 21.28 19.046 37.765 38.025 49.518 16.221 10.046 34.172 14.678 52.71 17.356 28.929 4.179 57.797 3.022 88.23-2.323m-654.847-820.145c-22.245-11.029-45.688-18.796-70.278-21.47-32.067-3.486-64.294-7.014-96.495-7.47-92.242-1.304-184.505-1.073-276.76-1.403-2.507-.01-5.015.465-7.634.724v133.533a511.577 511.577 0 0 0 92.59 20.848c34.466 4.471 69.036 5.327 103.689 3.965 45.683-1.795 90.875-7.666 135.304-18.445 49.282-11.957 96.84-28.914 142.241-51.656 9.714-4.865 19.2-10.182 29.358-15.593-13.278-19.714-31.086-32.107-52.015-43.033m-3.546 313.459c33.681-20.304 57.6-48.308 69.826-88.692-168.7 65.767-340.377 84.96-517.329 52.102v77.564h9.296c72.632-.002 145.264.04 217.897-.023 38.321-.032 76.568-1.412 114.698-5.716 37.26-4.207 72.158-15.2 105.612-35.235z"/><path fill="#FDFEFE" d="M2435.743 1210v1035.284H2298.84v-1136.4h136.902V1210z"/><path fill="#FEFEFE" d="M2269.742 1424v168.285h-137.053V456.204h137.053V1424z"/><path fill="#00309D" d="M1564.397 2130.283c-5.771 55.773-31.25 99.74-73.23 134.918-34.01 28.5-73.413 45.205-116.252 54.74-36.509 8.127-73.58 12.58-110.853 14.004-51.255 1.959-102.565 2.879-153.86 3.366-57.97.55-115.951.126-173.928.126h-10.683c-2.183-7.834-3.022-475.478-.99-495.407 1.72-.185 3.596-.567 5.47-.563 110.287.218 220.577.11 330.86.906 39.293.283 78.588 2.842 117.4 9.645 51.385 9.008 97.065 29.961 135.185 66.189 23.465 22.3 37.044 50.042 44.514 81.127 7.683 31.966 9.777 64.458 8.78 97.19-.334 10.969-1.524 21.912-2.413 33.76z"/><path fill="#01319D" d="M1953.228 1042.899c17.438 33.601 26.283 68.967 30.709 105.558 5.584 46.162 5.79 92.378.035 138.535-5.365 43.024-16.16 84.385-40.579 120.98-32.146 48.176-77.36 74.65-134.972 80.344-32.94 3.255-65.214.623-96.479-10.478-27.502-9.766-50.973-25.75-70.284-47.743-3.382-3.852-5.34-7.855-5.816-13.265-3.705-42.031-15.308-81.633-37.677-117.713a180.786 180.786 0 0 0-11.447-16.343c-2.797-3.562-4.289-7.217-4.632-11.76-3.75-49.679-3.182-99.19 5.97-148.32 7.083-38.016 19.122-74.181 42.876-105.367 29.037-38.123 67.7-60.385 114.984-67.352 31.218-4.6 62.404-4.282 93.241 3.378 47.682 11.845 83.792 39.28 109.156 81.152 1.552 2.563 3.032 5.168 4.915 8.394zm76.202 1114.799c-29.588 5.218-58.456 6.375-87.386 2.196-18.537-2.678-36.488-7.31-52.709-17.356-18.98-11.753-31.638-28.239-38.025-49.518-6.84-22.79-7.608-45.96-2.727-69.157 6.317-30.02 25.22-50.669 50.683-66.215 23.956-14.625 50.275-22.453 77.607-27.602 35.421-6.672 71.265-9.493 107.13-12.209 22.916-1.735 45.83-3.502 68.75-5.207 4.598-.342 9.212-.465 14.409-.718.258 3.205.643 5.769.645 8.332.035 53.313.002 106.625.07 159.937.007 4.453-.231 8.116-4.469 11.225-31.545 23.146-64.818 43.229-101.515 57.095-10.222 3.863-21.061 6.092-32.464 9.197zm-653.33-819.949c20.257 10.603 38.065 22.996 51.343 42.71-10.157 5.41-19.644 10.728-29.358 15.593-45.4 22.742-92.96 39.699-142.241 51.656-44.429 10.78-89.62 16.65-135.304 18.445-34.653 1.362-69.223.506-103.69-3.965a511.577 511.577 0 0 1-92.589-20.848v-133.533c2.619-.26 5.127-.733 7.634-.724 92.255.33 184.518.099 276.76 1.404 32.201.455 64.428 3.983 96.495 7.47 24.59 2.673 48.033 10.44 70.95 21.792z"/><path fill="#03329E" d="M1371.282 1651.297c-32.854 19.624-67.753 30.616-105.012 34.823-38.13 4.304-76.377 5.684-114.698 5.716-72.633.062-145.265.02-217.897.022h-9.296v-77.563c176.952 32.858 348.628 13.665 517.329-52.102-12.227 40.384-36.145 68.388-70.426 89.104z"/></svg>