<?xml version="1.0" encoding="UTF-8" standalone="no"?>
<svg
   version="1.1"
   id="Layer_1"
   x="0px"
   y="0px"
   width="100%"
   viewBox="0 0 2850 2779"
   enable-background="new 0 0 2850 2779"
   xml:space="preserve"
   sodipodi:docname="circle_blue_logo.svg"
   inkscape:version="1.1.1 (c3084ef, 2021-09-22)"
   xmlns:inkscape="http://www.inkscape.org/namespaces/inkscape"
   xmlns:sodipodi="http://sodipodi.sourceforge.net/DTD/sodipodi-0.dtd"
   xmlns="http://www.w3.org/2000/svg"
   xmlns:svg="http://www.w3.org/2000/svg"><defs
   id="defs847" /><sodipodi:namedview
   id="namedview845"
   pagecolor="#505050"
   bordercolor="#ffffff"
   borderopacity="1"
   inkscape:pageshadow="0"
   inkscape:pageopacity="0"
   inkscape:pagecheckerboard="1"
   showgrid="false"
   inkscape:zoom="0.25872616"
   inkscape:cx="270.55633"
   inkscape:cy="1435.8811"
   inkscape:window-width="2021"
   inkscape:window-height="1189"
   inkscape:window-x="0"
   inkscape:window-y="25"
   inkscape:window-maximized="0"
   inkscape:current-layer="Layer_1" />
<path
   fill="#000000"
   opacity="1.000000"
   stroke="none"
   d=" M2852.000000,968.000000   C2852.000000,1573.279785 2852.000000,2177.559570 2852.000000,2781.919678   C1902.137817,2781.919678 952.275513,2781.919678 2.206646,2781.919678   C2.206646,1855.553223 2.206646,929.106506 2.206646,2.329845   C951.999878,2.329845 1902.000000,2.329845 2852.000000,2.329845   C2852.000000,323.725067 2852.000000,645.362549 2852.000000,968.000000  M31.627962,1645.376709   C43.603497,1708.940674 60.547470,1771.153931 81.739357,1832.265015   C103.047264,1893.710571 128.624313,1953.279541 158.472351,2011.046509   C181.878113,2056.345215 207.692612,2100.200195 235.951721,2142.648926   C283.307678,2213.783203 336.764282,2280.021240 396.443207,2341.105469   C421.783966,2367.043213 448.243713,2391.994629 475.414398,2416.014893   C526.608765,2461.273193 580.953857,2502.507812 638.373779,2539.672363   C682.603027,2568.299072 728.160217,2594.574219 775.179932,2618.285889   C823.973816,2642.892334 874.114441,2664.460938 925.374878,2683.409180   C972.247192,2700.735596 1019.954285,2715.447266 1068.373901,2727.711182   C1126.505127,2742.434814 1185.363525,2753.406982 1244.895874,2760.917480   C1289.779541,2766.580566 1334.812988,2770.664551 1379.976685,2771.714600   C1429.563110,2772.867676 1479.254395,2773.305908 1528.738037,2768.617920   C1566.121704,2765.076172 1603.557739,2761.610107 1640.727417,2756.381836   C1734.631714,2743.173340 1826.132446,2719.933350 1915.462036,2688.087402   C1990.591431,2661.303711 2063.058594,2628.628906 2132.696533,2589.777588   C2199.130615,2552.713623 2262.279785,2510.656982 2321.881836,2463.342285   C2355.786377,2436.427734 2388.962158,2408.631836 2419.629150,2378.040527   C2446.495850,2351.240234 2473.628906,2324.622070 2499.079590,2296.507080   C2535.057617,2256.762695 2568.143066,2214.574707 2598.968262,2170.652100   C2639.216309,2113.302734 2675.445312,2053.491943 2705.994873,1990.483032   C2724.126221,1953.086426 2740.196045,1914.636841 2755.932861,1876.145630   C2776.869629,1824.935913 2792.878174,1772.039429 2806.304443,1718.385254   C2821.018799,1659.584595 2831.851074,1600.096436 2838.465332,1539.802368   C2842.346924,1504.418091 2845.698975,1468.999268 2846.124023,1433.432617   C2846.831543,1374.198853 2847.278320,1314.927979 2840.221680,1255.938110   C2837.339844,1231.847900 2834.906006,1207.679443 2831.127930,1183.726318   C2823.712646,1136.712524 2814.123779,1090.127197 2801.835205,1044.102539   C2788.513672,994.210510 2772.544434,945.200806 2753.661865,897.157104   C2735.868896,851.885498 2716.303955,807.365173 2693.139160,764.569214   C2676.826416,734.432556 2659.981934,704.544250 2642.251953,675.223999   C2618.111572,635.302612 2591.015381,597.369446 2562.702148,560.256836   C2529.332031,516.515625 2492.793457,475.594116 2454.791016,435.928650   C2443.512451,424.156403 2431.488525,413.089111 2419.635254,401.879395   C2405.857910,388.849792 2392.232666,375.628143 2377.945557,363.173523   C2332.474121,323.534210 2284.938232,286.523315 2234.785156,252.960037   C2177.138428,214.381760 2117.501709,179.178146 2054.437256,150.179810   C2018.455444,133.634567 1982.141235,117.674355 1945.306396,103.150772   C1871.438477,74.025543 1795.219849,52.483353 1717.435303,36.671997   C1670.778687,27.188034 1623.782715,19.511415 1576.306641,15.450755   C1542.191528,12.532866 1508.034790,9.090411 1473.842163,8.331207   C1424.587036,7.237556 1375.298584,7.490961 1326.044922,11.088237   C1284.518066,14.121167 1243.177490,18.559641 1202.102661,24.995258   C1128.681274,36.498955 1056.503906,53.457863 985.619751,76.025017   C916.609192,97.995674 849.672424,125.013512 784.745911,156.960312   C724.299988,186.702377 666.349915,220.787292 610.694092,258.806458   C543.433533,304.752960 480.816254,356.356323 422.250946,412.874756   C389.654663,444.331757 359.162201,477.808990 329.880524,512.378479   C260.703888,594.047302 201.938675,682.709839 153.670959,778.148010   C135.661636,813.757263 119.561638,850.431396 104.471840,887.387939   C91.280380,919.695374 80.046013,952.856689 69.166817,986.040710   C52.249615,1037.641968 39.171562,1090.312012 29.922777,1143.822998   C24.321003,1176.233276 19.657845,1208.839355 15.747343,1241.498169   C12.392707,1269.514648 9.693797,1297.689697 8.548105,1325.869507   C7.222319,1358.479370 7.839857,1391.170898 7.766150,1423.827271   C7.739837,1435.484985 7.601017,1447.186279 8.485932,1458.793701   C10.606748,1486.612061 12.483115,1514.490356 15.978724,1542.152344   C20.269270,1576.104980 26.107552,1609.861816 31.627962,1645.376709  z"
   id="path824"
   style="fill:#ffffff" />
<path
   fill="#00309D"
   opacity="1.000000"
   stroke="none"
   d=" M31.452362,1644.540039   C26.107552,1609.861816 20.269270,1576.104980 15.978724,1542.152344   C12.483115,1514.490356 10.606748,1486.612061 8.485932,1458.793701   C7.601017,1447.186279 7.739837,1435.484985 7.766150,1423.827271   C7.839857,1391.170898 7.222319,1358.479370 8.548105,1325.869507   C9.693797,1297.689697 12.392707,1269.514648 15.747343,1241.498169   C19.657845,1208.839355 24.321003,1176.233276 29.922777,1143.822998   C39.171562,1090.312012 52.249615,1037.641968 69.166817,986.040710   C80.046013,952.856689 91.280380,919.695374 104.471840,887.387939   C119.561638,850.431396 135.661636,813.757263 153.670959,778.148010   C201.938675,682.709839 260.703888,594.047302 329.880524,512.378479   C359.162201,477.808990 389.654663,444.331757 422.250946,412.874756   C480.816254,356.356323 543.433533,304.752960 610.694092,258.806458   C666.349915,220.787292 724.299988,186.702377 784.745911,156.960312   C849.672424,125.013512 916.609192,97.995674 985.619751,76.025017   C1056.503906,53.457863 1128.681274,36.498955 1202.102661,24.995258   C1243.177490,18.559641 1284.518066,14.121167 1326.044922,11.088237   C1375.298584,7.490961 1424.587036,7.237556 1473.842163,8.331207   C1508.034790,9.090411 1542.191528,12.532866 1576.306641,15.450755   C1623.782715,19.511415 1670.778687,27.188034 1717.435303,36.671997   C1795.219849,52.483353 1871.438477,74.025543 1945.306396,103.150772   C1982.141235,117.674355 2018.455444,133.634567 2054.437256,150.179810   C2117.501709,179.178146 2177.138428,214.381760 2234.785156,252.960037   C2284.938232,286.523315 2332.474121,323.534210 2377.945557,363.173523   C2392.232666,375.628143 2405.857910,388.849792 2419.635254,401.879395   C2431.488525,413.089111 2443.512451,424.156403 2454.791016,435.928650   C2492.793457,475.594116 2529.332031,516.515625 2562.702148,560.256836   C2591.015381,597.369446 2618.111572,635.302612 2642.251953,675.223999   C2659.981934,704.544250 2676.826416,734.432556 2693.139160,764.569214   C2716.303955,807.365173 2735.868896,851.885498 2753.661865,897.157104   C2772.544434,945.200806 2788.513672,994.210510 2801.835205,1044.102539   C2814.123779,1090.127197 2823.712646,1136.712524 2831.127930,1183.726318   C2834.906006,1207.679443 2837.339844,1231.847900 2840.221680,1255.938110   C2847.278320,1314.927979 2846.831543,1374.198853 2846.124023,1433.432617   C2845.698975,1468.999268 2842.346924,1504.418091 2838.465332,1539.802368   C2831.851074,1600.096436 2821.018799,1659.584595 2806.304443,1718.385254   C2792.878174,1772.039429 2776.869629,1824.935913 2755.932861,1876.145630   C2740.196045,1914.636841 2724.126221,1953.086426 2705.994873,1990.483032   C2675.445312,2053.491943 2639.216309,2113.302734 2598.968262,2170.652100   C2568.143066,2214.574707 2535.057617,2256.762695 2499.079590,2296.507080   C2473.628906,2324.622070 2446.495850,2351.240234 2419.629150,2378.040527   C2388.962158,2408.631836 2355.786377,2436.427734 2321.881836,2463.342285   C2262.279785,2510.656982 2199.130615,2552.713623 2132.696533,2589.777588   C2063.058594,2628.628906 1990.591431,2661.303711 1915.462036,2688.087402   C1826.132446,2719.933350 1734.631714,2743.173340 1640.727417,2756.381836   C1603.557739,2761.610107 1566.121704,2765.076172 1528.738037,2768.617920   C1479.254395,2773.305908 1429.563110,2772.867676 1379.976685,2771.714600   C1334.812988,2770.664551 1289.779541,2766.580566 1244.895874,2760.917480   C1185.363525,2753.406982 1126.505127,2742.434814 1068.373901,2727.711182   C1019.954285,2715.447266 972.247192,2700.735596 925.374878,2683.409180   C874.114441,2664.460938 823.973816,2642.892334 775.179932,2618.285889   C728.160217,2594.574219 682.603027,2568.299072 638.373779,2539.672363   C580.953857,2502.507812 526.608765,2461.273193 475.414398,2416.014893   C448.243713,2391.994629 421.783966,2367.043213 396.443207,2341.105469   C336.764282,2280.021240 283.307678,2213.783203 235.951721,2142.648926   C207.692612,2100.200195 181.878113,2056.345215 158.472351,2011.046509   C128.624313,1953.279541 103.047264,1893.710571 81.739357,1832.265015   C60.547470,1771.153931 43.603497,1708.940674 31.452362,1644.540039  M633.989502,651.025940   C637.361877,641.273193 640.497742,631.431152 644.144775,621.782288   C668.692200,556.838013 702.860168,497.889771 752.614197,448.745789   C789.194519,412.613953 830.218689,382.858307 877.275452,361.661957   C937.744202,334.424316 1001.592224,322.678101 1067.392700,320.587311   C1120.854492,318.888611 1173.897827,323.414795 1226.392456,334.015747   C1287.482910,346.352600 1345.636719,366.859039 1400.793945,395.905731   C1457.321411,425.674042 1509.756348,461.530060 1558.796509,502.361816   C1565.391968,507.853333 1571.787842,509.232544 1579.715088,507.144531   C1579.715088,432.550659 1579.715088,358.346741 1579.715088,284.123383   C1578.245972,283.271301 1577.144287,282.541290 1575.968018,281.963165   C1530.535767,259.636414 1484.380493,238.992584 1436.989380,221.104889   C1344.042480,186.022202 1247.984497,165.749619 1148.820923,160.595032   C1102.185059,158.170898 1055.567627,159.269333 1009.010437,163.648026   C961.118896,168.152222 914.086975,176.920380 867.890381,190.190186   C806.385254,207.857330 748.269287,233.313889 694.528809,268.104065   C609.355530,323.243073 543.725159,396.586090 495.699341,485.668335   C447.973236,574.194641 421.430237,669.386047 410.397430,768.910278   C406.329193,805.609070 404.740295,842.665833 403.749329,879.605713   C401.552246,961.506531 408.375580,1042.728638 426.183075,1122.814941   C448.216095,1221.904663 487.087860,1313.522217 548.713074,1394.791260   C591.520752,1451.244507 643.945862,1497.038086 704.426025,1533.690308   C718.031128,1541.935181 732.125610,1549.372681 746.831726,1557.653076   C746.831726,1867.569336 746.831726,2177.707764 746.831726,2488.358398   C750.795959,2488.358398 753.777405,2488.358398 756.758789,2488.358154   C910.087891,2488.356689 1063.416992,2488.419189 1216.746094,2488.321045   C1274.449097,2488.284180 1331.954956,2485.605713 1389.045654,2476.165039   C1462.457153,2464.025879 1530.141724,2438.073975 1591.272217,2395.284668   C1674.426025,2337.080078 1726.225464,2258.713135 1744.552124,2158.598145   C1745.758179,2152.010010 1746.942383,2145.417969 1748.528931,2136.663818   C1750.268311,2140.252441 1750.997192,2141.684814 1751.665527,2143.145264   C1778.518433,2201.816650 1824.128540,2238.299805 1885.738037,2255.038330   C1914.309814,2262.801270 1943.634888,2262.704102 1973.092407,2260.408203   C2022.541748,2256.553955 2068.321045,2241.616943 2110.480225,2215.893311   C2127.799316,2205.325684 2144.035645,2192.986084 2160.805176,2181.512207   C2162.746094,2180.184326 2164.950684,2179.241943 2168.401611,2177.383545   C2168.401611,2200.683350 2168.401611,2222.194336 2168.401611,2244.162842   C2204.015137,2244.151611 2238.808838,2244.178955 2274.002930,2244.145996   C2274.002930,2240.681885 2274.003174,2238.707031 2274.002930,2236.732422   C2273.993652,2095.069580 2273.972656,1953.406860 2273.986084,1811.744141   C2273.988281,1791.012085 2272.108887,1770.431030 2267.710449,1750.213623   C2257.176514,1701.796753 2232.073730,1663.244995 2189.776367,1636.365479   C2156.106689,1614.968750 2118.745605,1605.165527 2079.777832,1599.933594   C2041.980469,1594.858643 2004.018311,1594.609375 1966.017944,1596.032227   C1916.898315,1597.871460 1868.802124,1607.046997 1820.838989,1616.982544   C1811.176758,1618.984009 1801.636719,1621.575195 1792.362305,1623.816650   C1792.362305,1660.633545 1792.362305,1696.181763 1792.362305,1731.857178   C1794.210938,1731.939087 1795.650879,1732.370728 1796.834595,1731.995117   C1803.802124,1729.783569 1810.733276,1727.450806 1817.634155,1725.037598   C1885.439941,1701.325317 1954.618896,1685.763916 2027.081909,1690.092529   C2049.038818,1691.404175 2070.915527,1693.556396 2092.081299,1700.117310   C2111.170898,1706.034546 2128.318604,1715.189453 2141.848877,1730.281128   C2166.251709,1757.499756 2169.095703,1790.424194 2167.480469,1825.025635   C2165.628906,1825.366333 2164.382324,1825.718140 2163.116699,1825.810669   C2116.597900,1829.211792 2070.056885,1832.334106 2023.563477,1836.052734   C1988.684814,1838.842407 1954.009277,1843.332275 1919.995239,1851.921021   C1883.999268,1861.010376 1849.200684,1872.958130 1818.016846,1893.841675   C1784.297607,1916.423096 1759.464478,1945.909058 1746.272949,1984.660889   C1745.593628,1986.656494 1744.557739,1988.530762 1743.187988,1991.570679   C1742.536255,1989.177856 1742.241699,1988.242310 1742.027466,1987.288696   C1723.838257,1906.364746 1680.544922,1842.147339 1613.240479,1793.962036   C1569.761597,1762.833984 1520.935181,1744.085815 1469.223145,1732.076416   C1466.393799,1731.419312 1463.622314,1730.513794 1461.334595,1729.868042   C1459.132690,1722.979370 1463.824341,1721.629883 1467.584839,1719.658691   C1496.057007,1704.735107 1522.317993,1686.652954 1546.029907,1664.903442   C1577.898560,1635.672119 1603.317505,1601.887451 1619.324463,1561.424316   C1620.248291,1559.088989 1621.358643,1556.827393 1622.485596,1554.300171   C1648.454590,1568.738892 1675.415283,1578.047974 1703.531494,1584.218750   C1746.635864,1593.678833 1790.148804,1594.430786 1833.776733,1589.536499   C1865.046875,1586.028320 1895.286987,1577.947144 1923.987915,1564.904663   C1990.456543,1534.699097 2038.026123,1485.153442 2070.096191,1420.244019   C2094.658203,1370.531372 2105.745361,1317.281738 2109.696289,1262.355225   C2113.517334,1209.231201 2110.915283,1156.431763 2099.829590,1104.260010   C2088.752930,1052.130005 2068.665527,1003.894897 2035.943604,961.390503   C1998.501343,912.755188 1951.194092,877.913025 1892.242920,859.835693   C1828.707886,840.352661 1764.348022,839.048828 1699.716064,853.412354   C1622.051636,870.672180 1562.209839,914.017151 1518.603394,980.038635   C1483.077393,1033.826294 1466.282715,1093.984985 1459.959595,1157.501465   C1458.826782,1168.880249 1458.063721,1180.295898 1457.071533,1192.406982   C1453.601074,1191.182373 1451.114380,1190.360352 1448.667603,1189.432861   C1414.224487,1176.379150 1378.565796,1168.397461 1342.044312,1164.198608   C1297.300415,1159.054443 1252.331055,1156.687744 1207.350952,1156.505371   C1056.357544,1155.893188 905.361206,1156.005493 754.365967,1155.880859   C751.851868,1155.878784 749.337341,1156.384155 747.242859,1156.608032   C746.785278,1157.696533 746.553589,1157.990967 746.552734,1158.286011   C746.389587,1214.605469 746.243286,1270.924927 746.080322,1327.244385   C746.079468,1327.535645 745.920715,1327.905640 745.707764,1328.095337   C745.477905,1328.300415 745.097595,1328.336670 744.162964,1328.662964   C738.255493,1321.871826 731.971313,1315.058716 726.139526,1307.878296   C681.412109,1252.807739 651.098022,1190.154297 629.838379,1122.908569   C610.209412,1060.820923 602.303162,996.747009 600.154846,931.960693   C598.497131,881.972656 599.705017,831.996155 605.985779,782.262878   C611.544006,738.251282 619.541260,694.766968 633.989502,651.025940  M2435.742676,1209.000122   C2435.742676,1175.781494 2435.742676,1142.562988 2435.742676,1108.883545   C2389.466309,1108.883545 2344.325684,1108.883545 2298.840820,1108.883545   C2298.840820,1488.058472 2298.840820,1866.721558 2298.840820,2245.283691   C2344.715576,2245.283691 2389.860596,2245.283691 2435.742676,2245.283691   C2435.742676,1900.078369 2435.742676,1555.539307 2435.742676,1209.000122  M2269.741943,1423.000122   C2269.741943,1100.831055 2269.741943,778.661865 2269.741943,456.203552   C2223.395996,456.203552 2178.239258,456.203552 2132.688965,456.203552   C2132.688965,835.147827 2132.688965,1213.562988 2132.688965,1592.284912   C2178.424561,1592.284912 2223.585693,1592.284912 2269.741943,1592.284912   C2269.741943,1536.151123 2269.741943,1480.575684 2269.741943,1423.000122  z"
   id="path826" />
<path
   fill="#FEFEFF"
   opacity="1.000000"
   stroke="none"
   d=" M633.786499,651.795288   C619.541260,694.766968 611.544006,738.251282 605.985779,782.262878   C599.705017,831.996155 598.497131,881.972656 600.154846,931.960693   C602.303162,996.747009 610.209412,1060.820923 629.838379,1122.908569   C651.098022,1190.154297 681.412109,1252.807739 726.139526,1307.878296   C731.971313,1315.058716 738.255493,1321.871826 744.162964,1328.662964   C745.097595,1328.336670 745.477905,1328.300415 745.707764,1328.095337   C745.920715,1327.905640 746.079468,1327.535645 746.080322,1327.244385   C746.243286,1270.924927 746.389587,1214.605469 746.552734,1158.286011   C746.553589,1157.990967 746.785278,1157.696533 747.242859,1156.608032   C749.337341,1156.384155 751.851868,1155.878784 754.365967,1155.880859   C905.361206,1156.005493 1056.357544,1155.893188 1207.350952,1156.505371   C1252.331055,1156.687744 1297.300415,1159.054443 1342.044312,1164.198608   C1378.565796,1168.397461 1414.224487,1176.379150 1448.667603,1189.432861   C1451.114380,1190.360352 1453.601074,1191.182373 1457.071533,1192.406982   C1458.063721,1180.295898 1458.826782,1168.880249 1459.959595,1157.501465   C1466.282715,1093.984985 1483.077393,1033.826294 1518.603394,980.038635   C1562.209839,914.017151 1622.051636,870.672180 1699.716064,853.412354   C1764.348022,839.048828 1828.707886,840.352661 1892.242920,859.835693   C1951.194092,877.913025 1998.501343,912.755188 2035.943604,961.390503   C2068.665527,1003.894897 2088.752930,1052.130005 2099.829590,1104.260010   C2110.915283,1156.431763 2113.517334,1209.231201 2109.696289,1262.355225   C2105.745361,1317.281738 2094.658203,1370.531372 2070.096191,1420.244019   C2038.026123,1485.153442 1990.456543,1534.699097 1923.987915,1564.904663   C1895.286987,1577.947144 1865.046875,1586.028320 1833.776733,1589.536499   C1790.148804,1594.430786 1746.635864,1593.678833 1703.531494,1584.218750   C1675.415283,1578.047974 1648.454590,1568.738892 1622.485596,1554.300171   C1621.358643,1556.827393 1620.248291,1559.088989 1619.324463,1561.424316   C1603.317505,1601.887451 1577.898560,1635.672119 1546.029907,1664.903442   C1522.317993,1686.652954 1496.057007,1704.735107 1467.584839,1719.658691   C1463.824341,1721.629883 1459.132690,1722.979370 1461.334595,1729.868042   C1463.622314,1730.513794 1466.393799,1731.419312 1469.223145,1732.076416   C1520.935181,1744.085815 1569.761597,1762.833984 1613.240479,1793.962036   C1680.544922,1842.147339 1723.838257,1906.364746 1742.027466,1987.288696   C1742.241699,1988.242310 1742.536255,1989.177856 1743.187988,1991.570679   C1744.557739,1988.530762 1745.593628,1986.656494 1746.272949,1984.660889   C1759.464478,1945.909058 1784.297607,1916.423096 1818.016846,1893.841675   C1849.200684,1872.958130 1883.999268,1861.010376 1919.995239,1851.921021   C1954.009277,1843.332275 1988.684814,1838.842407 2023.563477,1836.052734   C2070.056885,1832.334106 2116.597900,1829.211792 2163.116699,1825.810669   C2164.382324,1825.718140 2165.628906,1825.366333 2167.480469,1825.025635   C2169.095703,1790.424194 2166.251709,1757.499756 2141.848877,1730.281128   C2128.318604,1715.189453 2111.170898,1706.034546 2092.081299,1700.117310   C2070.915527,1693.556396 2049.038818,1691.404175 2027.081909,1690.092529   C1954.618896,1685.763916 1885.439941,1701.325317 1817.634155,1725.037598   C1810.733276,1727.450806 1803.802124,1729.783569 1796.834595,1731.995117   C1795.650879,1732.370728 1794.210938,1731.939087 1792.362305,1731.857178   C1792.362305,1696.181763 1792.362305,1660.633545 1792.362305,1623.816650   C1801.636719,1621.575195 1811.176758,1618.984009 1820.838989,1616.982544   C1868.802124,1607.046997 1916.898315,1597.871460 1966.017944,1596.032227   C2004.018311,1594.609375 2041.980469,1594.858643 2079.777832,1599.933594   C2118.745605,1605.165527 2156.106689,1614.968750 2189.776367,1636.365479   C2232.073730,1663.244995 2257.176514,1701.796753 2267.710449,1750.213623   C2272.108887,1770.431030 2273.988281,1791.012085 2273.986084,1811.744141   C2273.972656,1953.406860 2273.993652,2095.069580 2274.002930,2236.732422   C2274.003174,2238.707031 2274.002930,2240.681885 2274.002930,2244.145996   C2238.808838,2244.178955 2204.015137,2244.151611 2168.401611,2244.162842   C2168.401611,2222.194336 2168.401611,2200.683350 2168.401611,2177.383545   C2164.950684,2179.241943 2162.746094,2180.184326 2160.805176,2181.512207   C2144.035645,2192.986084 2127.799316,2205.325684 2110.480225,2215.893311   C2068.321045,2241.616943 2022.541748,2256.553955 1973.092407,2260.408203   C1943.634888,2262.704102 1914.309814,2262.801270 1885.738037,2255.038330   C1824.128540,2238.299805 1778.518433,2201.816650 1751.665527,2143.145264   C1750.997192,2141.684814 1750.268311,2140.252441 1748.528931,2136.663818   C1746.942383,2145.417969 1745.758179,2152.010010 1744.552124,2158.598145   C1726.225464,2258.713135 1674.426025,2337.080078 1591.272217,2395.284668   C1530.141724,2438.073975 1462.457153,2464.025879 1389.045654,2476.165039   C1331.954956,2485.605713 1274.449097,2488.284180 1216.746094,2488.321045   C1063.416992,2488.419189 910.087891,2488.356689 756.758789,2488.358154   C753.777405,2488.358398 750.795959,2488.358398 746.831726,2488.358398   C746.831726,2177.707764 746.831726,1867.569336 746.831726,1557.653076   C732.125610,1549.372681 718.031128,1541.935181 704.426025,1533.690308   C643.945862,1497.038086 591.520752,1451.244507 548.713074,1394.791260   C487.087860,1313.522217 448.216095,1221.904663 426.183075,1122.814941   C408.375580,1042.728638 401.552246,961.506531 403.749329,879.605713   C404.740295,842.665833 406.329193,805.609070 410.397430,768.910278   C421.430237,669.386047 447.973236,574.194641 495.699341,485.668335   C543.725159,396.586090 609.355530,323.243073 694.528809,268.104065   C748.269287,233.313889 806.385254,207.857330 867.890381,190.190186   C914.086975,176.920380 961.118896,168.152222 1009.010437,163.648026   C1055.567627,159.269333 1102.185059,158.170898 1148.820923,160.595032   C1247.984497,165.749619 1344.042480,186.022202 1436.989380,221.104889   C1484.380493,238.992584 1530.535767,259.636414 1575.968018,281.963165   C1577.144287,282.541290 1578.245972,283.271301 1579.715088,284.123383   C1579.715088,358.346741 1579.715088,432.550659 1579.715088,507.144531   C1571.787842,509.232544 1565.391968,507.853333 1558.796509,502.361816   C1509.756348,461.530060 1457.321411,425.674042 1400.793945,395.905731   C1345.636719,366.859039 1287.482910,346.352600 1226.392456,334.015747   C1173.897827,323.414795 1120.854492,318.888611 1067.392700,320.587311   C1001.592224,322.678101 937.744202,334.424316 877.275452,361.661957   C830.218689,382.858307 789.194519,412.613953 752.614197,448.745789   C702.860168,497.889771 668.692200,556.838013 644.144775,621.782288   C640.497742,631.431152 637.361877,641.273193 633.786499,651.795288  M1564.486938,2129.391113   C1565.285645,2118.436035 1566.475586,2107.492920 1566.809570,2096.523682   C1567.806519,2063.791504 1565.712524,2031.300415 1558.030151,1999.333984   C1550.559570,1968.249146 1536.981323,1940.506836 1513.516357,1918.207031   C1475.395630,1881.979248 1429.715576,1861.026367 1378.330200,1852.018433   C1339.518799,1845.214600 1300.223755,1842.656128 1260.930664,1842.372681   C1150.647583,1841.576904 1040.358032,1841.684937 930.071045,1841.466919   C928.196716,1841.463257 926.321594,1841.844971 924.600830,1842.030273   C922.569214,1861.958862 923.407959,2329.602539 925.591003,2337.437012   C929.030579,2337.437012 932.652344,2337.437012 936.274048,2337.437012   C994.250610,2337.437012 1052.231201,2337.860596 1110.202515,2337.310547   C1161.497192,2336.823975 1212.806519,2335.903809 1264.062256,2333.945068   C1301.335815,2332.520264 1338.406494,2328.067871 1374.914795,2319.941406   C1417.754028,2310.405762 1457.156128,2293.701416 1491.166992,2265.201416   C1533.147339,2230.023193 1558.625977,2186.055908 1564.486938,2129.391113  M1952.858521,1042.258301   C1951.344849,1039.672974 1949.864624,1037.067505 1948.312622,1034.505493   C1922.948730,992.633118 1886.839233,965.197510 1839.157471,953.353088   C1808.319702,945.692993 1777.134033,945.374573 1745.915649,949.974548   C1698.631470,956.941772 1659.968750,979.203613 1630.931519,1017.326721   C1607.178101,1048.512817 1595.139282,1084.677612 1588.056885,1122.693848   C1578.904053,1171.824341 1578.335938,1221.334961 1582.086060,1271.013672   C1582.428955,1275.556519 1583.920654,1279.212036 1586.717651,1282.774170   C1590.819946,1287.999023 1594.663940,1293.469971 1598.164917,1299.116821   C1620.533691,1335.196899 1632.136963,1374.798706 1635.841919,1416.829590   C1636.318848,1422.240112 1638.275879,1426.242798 1641.658447,1430.095215   C1660.969238,1452.088745 1684.439819,1468.072021 1711.942139,1477.837646   C1743.206665,1488.939331 1775.480713,1491.571045 1808.420898,1488.315796   C1866.032837,1482.622803 1911.246948,1456.147583 1943.393188,1407.972046   C1967.811768,1371.377319 1978.606567,1330.015991 1983.971924,1286.991699   C1989.727783,1240.835083 1989.520508,1194.618530 1983.936890,1148.456909   C1979.510864,1111.866455 1970.665771,1076.500122 1952.858521,1042.258301  M2030.275635,2157.571045   C2040.831787,2154.592529 2051.671143,2152.363770 2061.893311,2148.501221   C2098.590332,2134.634521 2131.862549,2114.552246 2163.408447,2091.406006   C2167.645508,2088.297363 2167.883789,2084.634277 2167.877930,2080.180908   C2167.809326,2026.868652 2167.842041,1973.556519 2167.807129,1920.244263   C2167.805420,1917.680664 2167.420166,1915.117310 2167.161865,1911.912476   C2161.964844,1912.165161 2157.350586,1912.288208 2152.752930,1912.630249   C2129.833740,1914.334839 2106.919189,1916.101929 2084.002197,1917.837402   C2048.138428,1920.553223 2012.294067,1923.374023 1976.873047,1930.046387   C1949.540527,1935.195312 1923.221802,1943.023193 1899.266357,1957.648438   C1873.802979,1973.193970 1854.899780,1993.843384 1848.582642,2023.863403   C1843.701538,2047.059082 1844.469116,2070.230225 1851.309570,2093.019531   C1857.696777,2114.299072 1870.355591,2130.784912 1889.334961,2142.538330   C1905.556396,2152.583740 1923.507446,2157.215820 1942.044189,2159.893799   C1970.973755,2164.072754 1999.841553,2162.916016 2030.275635,2157.571045  M1375.428345,1337.426025   C1353.182861,1326.397461 1329.739502,1318.629639 1305.150269,1315.956299   C1273.082886,1312.469849 1240.855957,1308.941772 1208.654541,1308.486572   C1116.413086,1307.182007 1024.150024,1307.412964 931.895325,1307.082642   C929.388489,1307.073730 926.880005,1307.547607 924.260986,1307.807495   C924.260986,1352.750000 924.260986,1396.949829 924.260986,1441.339966   C954.709595,1451.226562 985.431946,1458.111938 1016.850830,1462.187988   C1051.316772,1466.659424 1085.887085,1467.515015 1120.540039,1466.153198   C1166.223145,1464.358032 1211.415161,1458.487061 1255.843506,1447.707764   C1305.125610,1435.750732 1352.684937,1418.793579 1398.085327,1396.052368   C1407.798828,1391.187134 1417.285645,1385.869751 1427.443237,1380.458862   C1414.165283,1360.744995 1396.357178,1348.352295 1375.428345,1337.426025  M1371.882446,1650.884888   C1405.562988,1630.580688 1429.481445,1602.576538 1441.707642,1562.193481   C1273.007446,1627.959595 1101.330811,1647.152954 924.379028,1614.294800   C924.379028,1640.647827 924.379028,1665.806274 924.379028,1691.858521   C927.814209,1691.858521 930.744751,1691.858398 933.675293,1691.858398   C1006.307373,1691.856812 1078.939453,1691.898193 1151.571533,1691.836426   C1189.893188,1691.803711 1228.139771,1690.424438 1266.270264,1686.119751   C1303.529053,1681.913452 1338.428467,1670.920654 1371.882446,1650.884888  z"
   id="path828" />
<path
   fill="#FDFEFE"
   opacity="1.000000"
   stroke="none"
   d=" M2435.742676,1210.000244   C2435.742676,1555.539307 2435.742676,1900.078369 2435.742676,2245.283691   C2389.860596,2245.283691 2344.715576,2245.283691 2298.840820,2245.283691   C2298.840820,1866.721558 2298.840820,1488.058472 2298.840820,1108.883545   C2344.325684,1108.883545 2389.466309,1108.883545 2435.742676,1108.883545   C2435.742676,1142.562988 2435.742676,1175.781494 2435.742676,1210.000244  z"
   id="path830" />
<path
   fill="#FEFEFE"
   opacity="1.000000"
   stroke="none"
   d=" M2269.741943,1424.000244   C2269.741943,1480.575684 2269.741943,1536.151123 2269.741943,1592.284912   C2223.585693,1592.284912 2178.424561,1592.284912 2132.688965,1592.284912   C2132.688965,1213.562988 2132.688965,835.147827 2132.688965,456.203552   C2178.239258,456.203552 2223.395996,456.203552 2269.741943,456.203552   C2269.741943,778.661865 2269.741943,1100.831055 2269.741943,1424.000244  z"
   id="path832" />
<path
   fill="#00309D"
   opacity="1.000000"
   stroke="none"
   d=" M1564.396973,2130.283447   C1558.625977,2186.055908 1533.147339,2230.023193 1491.166992,2265.201416   C1457.156128,2293.701416 1417.754028,2310.405762 1374.914795,2319.941406   C1338.406494,2328.067871 1301.335815,2332.520264 1264.062256,2333.945068   C1212.806519,2335.903809 1161.497192,2336.823975 1110.202515,2337.310547   C1052.231201,2337.860596 994.250610,2337.437012 936.274048,2337.437012   C932.652344,2337.437012 929.030579,2337.437012 925.591003,2337.437012   C923.407959,2329.602539 922.569214,1861.958862 924.600830,1842.030273   C926.321594,1841.844971 928.196716,1841.463257 930.071045,1841.466919   C1040.358032,1841.684937 1150.647583,1841.576904 1260.930664,1842.372681   C1300.223755,1842.656128 1339.518799,1845.214600 1378.330200,1852.018433   C1429.715576,1861.026367 1475.395630,1881.979248 1513.516357,1918.207031   C1536.981323,1940.506836 1550.559570,1968.249146 1558.030151,1999.333984   C1565.712524,2031.300415 1567.806519,2063.791504 1566.809570,2096.523682   C1566.475586,2107.492920 1565.285645,2118.436035 1564.396973,2130.283447  z"
   id="path834" />
<path
   fill="#01319D"
   opacity="1.000000"
   stroke="none"
   d=" M1953.227539,1042.898926   C1970.665771,1076.500122 1979.510864,1111.866455 1983.936890,1148.456909   C1989.520508,1194.618530 1989.727783,1240.835083 1983.971924,1286.991699   C1978.606567,1330.015991 1967.811768,1371.377319 1943.393188,1407.972046   C1911.246948,1456.147583 1866.032837,1482.622803 1808.420898,1488.315796   C1775.480713,1491.571045 1743.206665,1488.939331 1711.942139,1477.837646   C1684.439819,1468.072021 1660.969238,1452.088745 1641.658447,1430.095215   C1638.275879,1426.242798 1636.318848,1422.240112 1635.841919,1416.829590   C1632.136963,1374.798706 1620.533691,1335.196899 1598.164917,1299.116821   C1594.663940,1293.469971 1590.819946,1287.999023 1586.717651,1282.774170   C1583.920654,1279.212036 1582.428955,1275.556519 1582.086060,1271.013672   C1578.335938,1221.334961 1578.904053,1171.824341 1588.056885,1122.693848   C1595.139282,1084.677612 1607.178101,1048.512817 1630.931519,1017.326721   C1659.968750,979.203613 1698.631470,956.941772 1745.915649,949.974548   C1777.134033,945.374573 1808.319702,945.692993 1839.157471,953.353088   C1886.839233,965.197510 1922.948730,992.633118 1948.312622,1034.505493   C1949.864624,1037.067505 1951.344849,1039.672974 1953.227539,1042.898926  z"
   id="path836" />
<path
   fill="#01319D"
   opacity="1.000000"
   stroke="none"
   d=" M2029.429321,2157.698242   C1999.841553,2162.916016 1970.973755,2164.072754 1942.044189,2159.893799   C1923.507446,2157.215820 1905.556396,2152.583740 1889.334961,2142.538330   C1870.355591,2130.784912 1857.696777,2114.299072 1851.309570,2093.019531   C1844.469116,2070.230225 1843.701538,2047.059082 1848.582642,2023.863403   C1854.899780,1993.843384 1873.802979,1973.193970 1899.266357,1957.648438   C1923.221802,1943.023193 1949.540527,1935.195312 1976.873047,1930.046387   C2012.294067,1923.374023 2048.138428,1920.553223 2084.002197,1917.837402   C2106.919189,1916.101929 2129.833740,1914.334839 2152.752930,1912.630249   C2157.350586,1912.288208 2161.964844,1912.165161 2167.161865,1911.912476   C2167.420166,1915.117310 2167.805420,1917.680664 2167.807129,1920.244263   C2167.842041,1973.556519 2167.809326,2026.868652 2167.877930,2080.180908   C2167.883789,2084.634277 2167.645508,2088.297363 2163.408447,2091.406006   C2131.862549,2114.552246 2098.590332,2134.634521 2061.893311,2148.501221   C2051.671143,2152.363770 2040.831787,2154.592529 2029.429321,2157.698242  z"
   id="path838" />
<path
   fill="#01319D"
   opacity="1.000000"
   stroke="none"
   d=" M1376.099365,1337.749023   C1396.357178,1348.352295 1414.165283,1360.744995 1427.443237,1380.458862   C1417.285645,1385.869751 1407.798828,1391.187134 1398.085327,1396.052368   C1352.684937,1418.793579 1305.125610,1435.750732 1255.843506,1447.707764   C1211.415161,1458.487061 1166.223145,1464.358032 1120.540039,1466.153198   C1085.887085,1467.515015 1051.316772,1466.659424 1016.850830,1462.187988   C985.431946,1458.111938 954.709595,1451.226562 924.260986,1441.339966   C924.260986,1396.949829 924.260986,1352.750000 924.260986,1307.807495   C926.880005,1307.547607 929.388489,1307.073730 931.895325,1307.082642   C1024.150024,1307.412964 1116.413086,1307.182007 1208.654541,1308.486572   C1240.855957,1308.941772 1273.082886,1312.469849 1305.150269,1315.956299   C1329.739502,1318.629639 1353.182861,1326.397461 1376.099365,1337.749023  z"
   id="path840" />
<path
   fill="#03329E"
   opacity="1.000000"
   stroke="none"
   d=" M1371.281616,1651.296631   C1338.428467,1670.920654 1303.529053,1681.913452 1266.270264,1686.119751   C1228.139771,1690.424438 1189.893188,1691.803711 1151.571533,1691.836426   C1078.939453,1691.898193 1006.307373,1691.856812 933.675293,1691.858398   C930.744751,1691.858398 927.814209,1691.858521 924.379028,1691.858521   C924.379028,1665.806274 924.379028,1640.647827 924.379028,1614.294800   C1101.330811,1647.152954 1273.007446,1627.959595 1441.707642,1562.193481   C1429.481445,1602.576538 1405.562988,1630.580688 1371.281616,1651.296631  z"
   id="path842" />
</svg>
