<svg xmlns="http://www.w3.org/2000/svg" width="111" height="108" viewBox="0 0 2850 2779" version="1.1"><path d="M 1063 157.600 C 995.588 160.644, 953.819 166.092, 898.940 178.998 C 796.522 203.083, 701.939 249.571, 630.534 310.921 C 562.876 369.053, 509.924 440.554, 471.253 526 C 440.639 593.644, 419.381 670.456, 408.569 752.500 C 400.969 810.177, 398.019 888.611, 401.053 952.372 C 406.182 1060.157, 425.176 1154.090, 458.808 1238 C 512.623 1372.263, 594.484 1469.523, 710.500 1537.039 C 718.750 1541.840, 729.438 1547.720, 734.250 1550.107 L 743 1554.446 743 2020.263 L 743 2486.080 1010.250 2485.708 C 1199.688 2485.444, 1282.013 2484.999, 1293 2484.179 C 1374.774 2478.074, 1426.398 2468.620, 1477.207 2450.445 C 1542.376 2427.133, 1609.280 2384.024, 1651.358 2338.229 C 1692.387 2293.577, 1721.016 2240.388, 1735.986 2181 C 1739.066 2168.783, 1744 2141.595, 1744 2136.842 C 1744 2135.279, 1744.450 2134, 1745 2134 C 1745.550 2134, 1746.002 2134.563, 1746.005 2135.250 C 1746.015 2138.065, 1758.171 2161.208, 1764.782 2171 C 1792.281 2211.731, 1838.188 2242.991, 1886.500 2253.882 C 1905.621 2258.193, 1919.583 2259.285, 1948 2258.694 C 1988.833 2257.844, 2011.685 2253.957, 2046.500 2241.942 C 2081.431 2229.887, 2099.881 2219.788, 2143.806 2188.675 C 2154.425 2181.154, 2163.312 2175, 2163.556 2175 C 2163.800 2175, 2164 2190.075, 2164 2208.500 L 2164 2242 2217.548 2242 L 2271.096 2242 2270.738 2015.750 C 2270.346 1768.019, 2270.628 1780.040, 2264.494 1749.479 C 2256.367 1708.989, 2235.119 1672.457, 2205.500 1648.050 C 2189.624 1634.967, 2165.531 1621.315, 2144.565 1613.522 C 2123.359 1605.639, 2090.132 1598.791, 2057 1595.475 C 2048.475 1594.621, 2027.325 1593.652, 2010 1593.321 C 1963.315 1592.427, 1928.335 1594.953, 1882 1602.565 C 1857.958 1606.514, 1811.265 1615.767, 1797.500 1619.310 L 1788.500 1621.626 1788.241 1675.813 L 1787.983 1730 1790.602 1730 C 1792.042 1730, 1806.559 1725.507, 1822.860 1720.015 C 1900.094 1693.996, 1964.814 1683.769, 2025.500 1687.992 C 2058.527 1690.290, 2076.139 1693.417, 2096.201 1700.542 C 2128.254 1711.926, 2151.015 1735.921, 2159.395 1767.164 C 2162.913 1780.281, 2164 1789.806, 2164 1807.511 L 2164 1822.877 2159.750 1823.405 C 2157.412 1823.695, 2149.425 1824.201, 2142 1824.530 C 2088.986 1826.879, 1998.727 1834.910, 1962.981 1840.458 C 1911.464 1848.455, 1862.416 1863.737, 1830.607 1881.702 C 1786.330 1906.708, 1755.510 1942.293, 1742.748 1983.144 C 1741.570 1986.915, 1740.296 1990, 1739.917 1990 C 1739.537 1990, 1738.912 1987.900, 1738.527 1985.332 C 1737.426 1977.991, 1730.474 1954.271, 1725.325 1940.290 C 1715.025 1912.320, 1696.322 1879.351, 1676.860 1854.858 C 1666.474 1841.787, 1638.478 1813.691, 1625.961 1803.779 C 1583.411 1770.082, 1535.116 1747.226, 1474.225 1731.969 L 1457 1727.653 1457 1724.417 C 1457 1721.375, 1457.522 1720.901, 1465.750 1716.476 C 1500.604 1697.735, 1525.800 1679.173, 1552.579 1652.510 C 1581.598 1623.616, 1602.841 1592.439, 1614.931 1560.997 C 1616.729 1556.324, 1618.300 1552.392, 1618.423 1552.260 C 1618.546 1552.128, 1624.914 1555.118, 1632.573 1558.905 C 1660.915 1572.918, 1695.360 1582.698, 1733.500 1587.562 C 1750.199 1589.691, 1790.975 1590.520, 1810 1589.117 C 1881.876 1583.816, 1940.189 1560.897, 1989.821 1518.442 C 2045.163 1471.102, 2082.387 1403.156, 2098.451 1320.157 C 2109.640 1262.348, 2110.598 1185.328, 2100.859 1126.500 C 2090.768 1065.540, 2071.854 1015.792, 2042.395 972.727 C 2029.787 954.294, 2007.104 928.542, 1991.887 915.383 C 1944.051 874.017, 1890.090 851.353, 1821.500 843.818 C 1805.795 842.093, 1755.388 842.091, 1739.500 843.815 C 1664.103 851.996, 1604.776 879.207, 1555.982 927.986 C 1538.669 945.294, 1528.056 958.295, 1514.756 978.486 C 1479.990 1031.265, 1460.831 1093.781, 1454.890 1173.825 C 1453.841 1187.958, 1453.465 1190.082, 1452.089 1189.647 C 1451.215 1189.371, 1445.325 1187.281, 1439 1185.003 C 1395.568 1169.360, 1352.925 1161.677, 1286.500 1157.530 C 1233.544 1154.224, 1204.469 1153.829, 975.250 1153.301 L 743 1152.767 742.961 1240.633 L 742.921 1328.500 736.422 1321.500 C 683.418 1264.417, 637.375 1172.913, 615.908 1082 C 597.085 1002.280, 591.254 899.837, 600 802.500 C 602.225 777.735, 608.723 734.806, 613.925 710.500 C 631.686 627.509, 666.805 547.655, 710.896 490 C 749.761 439.180, 803.668 394.227, 858.991 366.505 C 931.744 330.048, 1017.749 314.281, 1118 319.022 C 1208.927 323.322, 1292.745 343.822, 1372.416 381.245 C 1428.245 407.469, 1494.756 450.254, 1549 494.835 L 1562.500 505.931 1569.750 505.965 L 1577 506 1577 394.008 L 1577 282.017 1565.750 276.372 C 1551.297 269.121, 1518.493 254.008, 1495.500 244.008 C 1380.303 193.908, 1280.368 168.452, 1163.500 159.440 C 1144.924 158.007, 1080.214 156.823, 1063 157.600 M 2129 1022 L 2129 1591 2197.500 1591 L 2266 1591 2266 1022 L 2266 453 2197.500 453 L 2129 453 2129 1022 M 1753.051 946.084 C 1716.954 950.128, 1684.458 962.887, 1658.812 983.087 C 1648.155 991.481, 1631.747 1008.773, 1624.067 1019.706 C 1598.088 1056.687, 1582.942 1107, 1577.930 1172.961 C 1576.658 1189.695, 1577.273 1261.484, 1578.765 1270.500 C 1579.395 1274.307, 1581.008 1277.409, 1585.522 1283.500 C 1610.251 1316.866, 1625.949 1359.069, 1631.607 1407.401 L 1633.324 1422.067 1640.578 1430.283 C 1667.768 1461.083, 1708.798 1481.012, 1755.211 1485.964 C 1767.726 1487.299, 1792.947 1487.292, 1806.034 1485.949 C 1862.916 1480.111, 1909.376 1452.096, 1940.277 1405 C 1948.200 1392.924, 1958.167 1372.987, 1963.522 1358.501 C 1968.081 1346.172, 1975.147 1318.552, 1977.850 1302.500 C 1982.919 1272.401, 1983.480 1263.895, 1983.490 1217 C 1983.497 1187.145, 1983.071 1168.551, 1982.196 1160.500 C 1975.229 1096.412, 1960.301 1051.720, 1933.886 1015.876 C 1926.280 1005.556, 1909.042 988.263, 1899 980.879 C 1874.515 962.876, 1849.502 952.581, 1817.500 947.332 C 1806.555 945.537, 1765.098 944.734, 1753.051 946.084 M 2295 1675 L 2295 2244 2363.500 2244 L 2432 2244 2432 1675 L 2432 1106 2363.500 1106 L 2295 1106 2295 1675 M 920 1371.884 L 920 1438.914 929.750 1441.878 C 1010.968 1466.570, 1100.488 1471.048, 1201 1455.447 C 1253.688 1447.270, 1307.928 1431.699, 1359.500 1409.947 C 1375.042 1403.393, 1420.518 1380.911, 1422.749 1378.680 C 1423.774 1377.654, 1422.995 1376.171, 1418.693 1370.955 C 1396.934 1344.577, 1358.580 1324.614, 1311.500 1315.160 C 1294.596 1311.766, 1275.518 1309.817, 1230 1306.836 C 1219.991 1306.180, 1155.767 1305.578, 1066.750 1305.305 L 920 1304.854 920 1371.884 M 1427.500 1564.237 C 1351.852 1593.019, 1259.425 1615.386, 1183 1623.407 C 1133.609 1628.591, 1057.357 1628.603, 1002.500 1623.436 C 977.525 1621.084, 932.498 1614.856, 922.250 1612.336 L 920 1611.783 920 1650.451 L 920 1689.118 1069.750 1688.740 C 1214.501 1688.375, 1220.206 1688.291, 1240.664 1686.204 C 1294.197 1680.743, 1317.719 1674.702, 1351.500 1657.740 C 1394.368 1636.215, 1419.542 1609.869, 1434.670 1570.699 C 1436.558 1565.809, 1437.967 1561.499, 1437.801 1561.120 C 1437.636 1560.742, 1433 1562.144, 1427.500 1564.237 M 920 2087.015 L 920 2335.160 1072.250 2334.707 C 1218.168 2334.273, 1235.811 2333.947, 1273.500 2330.991 C 1366.200 2323.720, 1420.566 2309.103, 1465.013 2279.500 C 1499.547 2256.499, 1526.608 2227.006, 1541.804 2195.803 C 1557.096 2164.407, 1563.218 2131.862, 1563.212 2082 C 1563.204 2008.171, 1549.468 1960.405, 1517.670 1923.630 C 1507.508 1911.878, 1487.472 1895.883, 1469 1884.778 C 1427.519 1859.841, 1392.430 1849.704, 1328 1844.046 C 1280.975 1839.916, 1270.352 1839.701, 1092.750 1839.279 L 920 1838.869 920 2087.015 M 2131 1911.587 C 2023.567 1919.264, 1977.348 1924.985, 1943.500 1934.794 C 1905.999 1945.663, 1874.478 1965.773, 1859.103 1988.640 C 1844.339 2010.597, 1838.699 2042.379, 1844.014 2073.651 C 1847.946 2096.779, 1854.634 2111.249, 1867.807 2125.128 C 1884.214 2142.415, 1903.341 2151.489, 1935.500 2157.242 C 1951.909 2160.178, 1994.363 2160.407, 2012 2157.655 C 2039.984 2153.288, 2055.557 2148.538, 2080.439 2136.781 C 2108.058 2123.730, 2131.653 2109.689, 2155.250 2092.261 L 2164 2085.799 2164 1997.899 L 2164 1910 2156.750 1910.132 C 2152.762 1910.205, 2141.175 1910.860, 2131 1911.587" stroke="none" fill="#fbfbfb" fill-rule="evenodd"/><path d="M 1367 6.609 C 1319.092 9.104, 1296.100 10.862, 1263 14.559 C 991.637 44.869, 737.472 149.122, 526 316.861 C 391.517 423.533, 275.356 557.114, 190.218 703 C 166.878 742.992, 137.730 799.712, 120.585 838.500 C 59.115 977.567, 21.106 1125.002, 8.571 1273 C 4.915 1316.165, 4.500 1328.124, 4.531 1389.500 C 4.563 1454.344, 5.236 1470.118, 10.057 1519 C 28.991 1710.947, 88.063 1895.084, 184.688 2063.354 C 306.833 2276.065, 485.315 2453.865, 701.646 2578.334 C 884.889 2683.766, 1091.884 2748.061, 1304 2765.432 C 1348.817 2769.102, 1360.250 2769.490, 1423.500 2769.490 C 1486.750 2769.490, 1498.183 2769.102, 1543 2765.432 C 1936.901 2733.175, 2300.186 2541.583, 2543.095 2237.997 C 2593.312 2175.236, 2634.296 2114.090, 2674.465 2042 C 2686.617 2020.191, 2715.904 1961.279, 2726.415 1937.500 C 2787.899 1798.402, 2825.891 1651.031, 2838.429 1503 C 2842.060 1460.131, 2842.500 1447.698, 2842.500 1388 C 2842.500 1328.312, 2842.062 1315.926, 2838.431 1273 C 2819.486 1049.010, 2742.947 829.756, 2617.459 640 C 2498.362 459.908, 2337.804 308.950, 2149.500 200.020 C 1967.675 94.837, 1765.596 30.823, 1554.500 11.537 C 1510.978 7.561, 1492.441 6.798, 1433 6.534 C 1400.275 6.389, 1370.575 6.423, 1367 6.609 M 1063 157.600 C 995.588 160.644, 953.819 166.092, 898.940 178.998 C 796.522 203.083, 701.939 249.571, 630.534 310.921 C 562.876 369.053, 509.924 440.554, 471.253 526 C 440.639 593.644, 419.381 670.456, 408.569 752.500 C 400.969 810.177, 398.019 888.611, 401.053 952.372 C 406.182 1060.157, 425.176 1154.090, 458.808 1238 C 512.623 1372.263, 594.484 1469.523, 710.500 1537.039 C 718.750 1541.840, 729.438 1547.720, 734.250 1550.107 L 743 1554.446 743 2020.263 L 743 2486.080 1010.250 2485.708 C 1199.688 2485.444, 1282.013 2484.999, 1293 2484.179 C 1374.774 2478.074, 1426.398 2468.620, 1477.207 2450.445 C 1542.376 2427.133, 1609.280 2384.024, 1651.358 2338.229 C 1692.387 2293.577, 1721.016 2240.388, 1735.986 2181 C 1739.066 2168.783, 1744 2141.595, 1744 2136.842 C 1744 2135.279, 1744.450 2134, 1745 2134 C 1745.550 2134, 1746.002 2134.563, 1746.005 2135.250 C 1746.015 2138.065, 1758.171 2161.208, 1764.782 2171 C 1792.281 2211.731, 1838.188 2242.991, 1886.500 2253.882 C 1905.621 2258.193, 1919.583 2259.285, 1948 2258.694 C 1988.833 2257.844, 2011.685 2253.957, 2046.500 2241.942 C 2081.431 2229.887, 2099.881 2219.788, 2143.806 2188.675 C 2154.425 2181.154, 2163.312 2175, 2163.556 2175 C 2163.800 2175, 2164 2190.075, 2164 2208.500 L 2164 2242 2217.548 2242 L 2271.096 2242 2270.738 2015.750 C 2270.346 1768.019, 2270.628 1780.040, 2264.494 1749.479 C 2256.367 1708.989, 2235.119 1672.457, 2205.500 1648.050 C 2189.624 1634.967, 2165.531 1621.315, 2144.565 1613.522 C 2123.359 1605.639, 2090.132 1598.791, 2057 1595.475 C 2048.475 1594.621, 2027.325 1593.652, 2010 1593.321 C 1963.315 1592.427, 1928.335 1594.953, 1882 1602.565 C 1857.958 1606.514, 1811.265 1615.767, 1797.500 1619.310 L 1788.500 1621.626 1788.241 1675.813 L 1787.983 1730 1790.602 1730 C 1792.042 1730, 1806.559 1725.507, 1822.860 1720.015 C 1900.094 1693.996, 1964.814 1683.769, 2025.500 1687.992 C 2058.527 1690.290, 2076.139 1693.417, 2096.201 1700.542 C 2128.254 1711.926, 2151.015 1735.921, 2159.395 1767.164 C 2162.913 1780.281, 2164 1789.806, 2164 1807.511 L 2164 1822.877 2159.750 1823.405 C 2157.412 1823.695, 2149.425 1824.201, 2142 1824.530 C 2088.986 1826.879, 1998.727 1834.910, 1962.981 1840.458 C 1911.464 1848.455, 1862.416 1863.737, 1830.607 1881.702 C 1786.330 1906.708, 1755.510 1942.293, 1742.748 1983.144 C 1741.570 1986.915, 1740.296 1990, 1739.917 1990 C 1739.537 1990, 1738.912 1987.900, 1738.527 1985.332 C 1737.426 1977.991, 1730.474 1954.271, 1725.325 1940.290 C 1715.025 1912.320, 1696.322 1879.351, 1676.860 1854.858 C 1666.474 1841.787, 1638.478 1813.691, 1625.961 1803.779 C 1583.411 1770.082, 1535.116 1747.226, 1474.225 1731.969 L 1457 1727.653 1457 1724.417 C 1457 1721.375, 1457.522 1720.901, 1465.750 1716.476 C 1500.604 1697.735, 1525.800 1679.173, 1552.579 1652.510 C 1581.598 1623.616, 1602.841 1592.439, 1614.931 1560.997 C 1616.729 1556.324, 1618.300 1552.392, 1618.423 1552.260 C 1618.546 1552.128, 1624.914 1555.118, 1632.573 1558.905 C 1660.915 1572.918, 1695.360 1582.698, 1733.500 1587.562 C 1750.199 1589.691, 1790.975 1590.520, 1810 1589.117 C 1881.876 1583.816, 1940.189 1560.897, 1989.821 1518.442 C 2045.163 1471.102, 2082.387 1403.156, 2098.451 1320.157 C 2109.640 1262.348, 2110.598 1185.328, 2100.859 1126.500 C 2090.768 1065.540, 2071.854 1015.792, 2042.395 972.727 C 2029.787 954.294, 2007.104 928.542, 1991.887 915.383 C 1944.051 874.017, 1890.090 851.353, 1821.500 843.818 C 1805.795 842.093, 1755.388 842.091, 1739.500 843.815 C 1664.103 851.996, 1604.776 879.207, 1555.982 927.986 C 1538.669 945.294, 1528.056 958.295, 1514.756 978.486 C 1479.990 1031.265, 1460.831 1093.781, 1454.890 1173.825 C 1453.841 1187.958, 1453.465 1190.082, 1452.089 1189.647 C 1451.215 1189.371, 1445.325 1187.281, 1439 1185.003 C 1395.568 1169.360, 1352.925 1161.677, 1286.500 1157.530 C 1233.544 1154.224, 1204.469 1153.829, 975.250 1153.301 L 743 1152.767 742.961 1240.633 L 742.921 1328.500 736.422 1321.500 C 683.418 1264.417, 637.375 1172.913, 615.908 1082 C 597.085 1002.280, 591.254 899.837, 600 802.500 C 602.225 777.735, 608.723 734.806, 613.925 710.500 C 631.686 627.509, 666.805 547.655, 710.896 490 C 749.761 439.180, 803.668 394.227, 858.991 366.505 C 931.744 330.048, 1017.749 314.281, 1118 319.022 C 1208.927 323.322, 1292.745 343.822, 1372.416 381.245 C 1428.245 407.469, 1494.756 450.254, 1549 494.835 L 1562.500 505.931 1569.750 505.965 L 1577 506 1577 394.008 L 1577 282.017 1565.750 276.372 C 1551.297 269.121, 1518.493 254.008, 1495.500 244.008 C 1380.303 193.908, 1280.368 168.452, 1163.500 159.440 C 1144.924 158.007, 1080.214 156.823, 1063 157.600 M 2129 1022 L 2129 1591 2197.500 1591 L 2266 1591 2266 1022 L 2266 453 2197.500 453 L 2129 453 2129 1022 M 1753.051 946.084 C 1716.954 950.128, 1684.458 962.887, 1658.812 983.087 C 1648.155 991.481, 1631.747 1008.773, 1624.067 1019.706 C 1598.088 1056.687, 1582.942 1107, 1577.930 1172.961 C 1576.658 1189.695, 1577.273 1261.484, 1578.765 1270.500 C 1579.395 1274.307, 1581.008 1277.409, 1585.522 1283.500 C 1610.251 1316.866, 1625.949 1359.069, 1631.607 1407.401 L 1633.324 1422.067 1640.578 1430.283 C 1667.768 1461.083, 1708.798 1481.012, 1755.211 1485.964 C 1767.726 1487.299, 1792.947 1487.292, 1806.034 1485.949 C 1862.916 1480.111, 1909.376 1452.096, 1940.277 1405 C 1948.200 1392.924, 1958.167 1372.987, 1963.522 1358.501 C 1968.081 1346.172, 1975.147 1318.552, 1977.850 1302.500 C 1982.919 1272.401, 1983.480 1263.895, 1983.490 1217 C 1983.497 1187.145, 1983.071 1168.551, 1982.196 1160.500 C 1975.229 1096.412, 1960.301 1051.720, 1933.886 1015.876 C 1926.280 1005.556, 1909.042 988.263, 1899 980.879 C 1874.515 962.876, 1849.502 952.581, 1817.500 947.332 C 1806.555 945.537, 1765.098 944.734, 1753.051 946.084 M 2295 1675 L 2295 2244 2363.500 2244 L 2432 2244 2432 1675 L 2432 1106 2363.500 1106 L 2295 1106 2295 1675 M 920 1371.884 L 920 1438.914 929.750 1441.878 C 1010.968 1466.570, 1100.488 1471.048, 1201 1455.447 C 1253.688 1447.270, 1307.928 1431.699, 1359.500 1409.947 C 1375.042 1403.393, 1420.518 1380.911, 1422.749 1378.680 C 1423.774 1377.654, 1422.995 1376.171, 1418.693 1370.955 C 1396.934 1344.577, 1358.580 1324.614, 1311.500 1315.160 C 1294.596 1311.766, 1275.518 1309.817, 1230 1306.836 C 1219.991 1306.180, 1155.767 1305.578, 1066.750 1305.305 L 920 1304.854 920 1371.884 M 1427.500 1564.237 C 1351.852 1593.019, 1259.425 1615.386, 1183 1623.407 C 1133.609 1628.591, 1057.357 1628.603, 1002.500 1623.436 C 977.525 1621.084, 932.498 1614.856, 922.250 1612.336 L 920 1611.783 920 1650.451 L 920 1689.118 1069.750 1688.740 C 1214.501 1688.375, 1220.206 1688.291, 1240.664 1686.204 C 1294.197 1680.743, 1317.719 1674.702, 1351.500 1657.740 C 1394.368 1636.215, 1419.542 1609.869, 1434.670 1570.699 C 1436.558 1565.809, 1437.967 1561.499, 1437.801 1561.120 C 1437.636 1560.742, 1433 1562.144, 1427.500 1564.237 M 920 2087.015 L 920 2335.160 1072.250 2334.707 C 1218.168 2334.273, 1235.811 2333.947, 1273.500 2330.991 C 1366.200 2323.720, 1420.566 2309.103, 1465.013 2279.500 C 1499.547 2256.499, 1526.608 2227.006, 1541.804 2195.803 C 1557.096 2164.407, 1563.218 2131.862, 1563.212 2082 C 1563.204 2008.171, 1549.468 1960.405, 1517.670 1923.630 C 1507.508 1911.878, 1487.472 1895.883, 1469 1884.778 C 1427.519 1859.841, 1392.430 1849.704, 1328 1844.046 C 1280.975 1839.916, 1270.352 1839.701, 1092.750 1839.279 L 920 1838.869 920 2087.015 M 2131 1911.587 C 2023.567 1919.264, 1977.348 1924.985, 1943.500 1934.794 C 1905.999 1945.663, 1874.478 1965.773, 1859.103 1988.640 C 1844.339 2010.597, 1838.699 2042.379, 1844.014 2073.651 C 1847.946 2096.779, 1854.634 2111.249, 1867.807 2125.128 C 1884.214 2142.415, 1903.341 2151.489, 1935.500 2157.242 C 1951.909 2160.178, 1994.363 2160.407, 2012 2157.655 C 2039.984 2153.288, 2055.557 2148.538, 2080.439 2136.781 C 2108.058 2123.730, 2131.653 2109.689, 2155.250 2092.261 L 2164 2085.799 2164 1997.899 L 2164 1910 2156.750 1910.132 C 2152.762 1910.205, 2141.175 1910.860, 2131 1911.587" stroke="none" fill="#04349c" fill-rule="evenodd"/></svg>